<mxfile host="app.diagrams.net" modified="2021-02-09T10:04:02.772Z" agent="5.0 (Windows NT 10.0; Win64; x64) AppleWebKit/537.36 (KHTML, like Gecko) Chrome/88.0.4324.146 Safari/537.36" etag="BdcmvHXZcezsS7ucKZ0X" version="14.3.0" type="github">
  <diagram id="R2lEEEUBdFMjLlhIrx00" name="Page-1">
    <mxGraphModel dx="1422" dy="762" grid="0" gridSize="10" guides="1" tooltips="1" connect="1" arrows="1" fold="1" page="1" pageScale="1" pageWidth="850" pageHeight="1100" math="0" shadow="0" extFonts="Permanent Marker^https://fonts.googleapis.com/css?family=Permanent+Marker">
      <root>
        <mxCell id="0" />
        <mxCell id="1" parent="0" />
        <mxCell id="J5P5tDlpoE1sLNyTf0Wl-43" value="InsuranceInfo" style="shape=table;startSize=30;container=1;collapsible=1;childLayout=tableLayout;fixedRows=1;rowLines=0;fontStyle=1;align=center;resizeLast=1;" vertex="1" parent="1">
          <mxGeometry x="472" y="839" width="212.75" height="192.25" as="geometry" />
        </mxCell>
        <mxCell id="J5P5tDlpoE1sLNyTf0Wl-44" value="" style="shape=partialRectangle;collapsible=0;dropTarget=0;pointerEvents=0;fillColor=none;top=0;left=0;bottom=1;right=0;points=[[0,0.5],[1,0.5]];portConstraint=eastwest;" vertex="1" parent="J5P5tDlpoE1sLNyTf0Wl-43">
          <mxGeometry y="30" width="212.75" height="32" as="geometry" />
        </mxCell>
        <mxCell id="J5P5tDlpoE1sLNyTf0Wl-45" value="PK" style="shape=partialRectangle;connectable=0;fillColor=none;top=0;left=0;bottom=0;right=0;fontStyle=1;overflow=hidden;" vertex="1" parent="J5P5tDlpoE1sLNyTf0Wl-44">
          <mxGeometry width="33.75" height="32" as="geometry" />
        </mxCell>
        <mxCell id="J5P5tDlpoE1sLNyTf0Wl-46" value="patient_id&#xa;billing_id&#xa;" style="shape=partialRectangle;connectable=0;fillColor=none;top=0;left=0;bottom=0;right=0;align=left;spacingLeft=6;fontStyle=5;overflow=hidden;" vertex="1" parent="J5P5tDlpoE1sLNyTf0Wl-44">
          <mxGeometry x="33.75" width="179" height="32" as="geometry" />
        </mxCell>
        <mxCell id="J5P5tDlpoE1sLNyTf0Wl-50" value="" style="shape=partialRectangle;collapsible=0;dropTarget=0;pointerEvents=0;fillColor=none;top=0;left=0;bottom=0;right=0;points=[[0,0.5],[1,0.5]];portConstraint=eastwest;" vertex="1" parent="J5P5tDlpoE1sLNyTf0Wl-43">
          <mxGeometry y="62" width="212.75" height="28" as="geometry" />
        </mxCell>
        <mxCell id="J5P5tDlpoE1sLNyTf0Wl-51" value="" style="shape=partialRectangle;connectable=0;fillColor=none;top=0;left=0;bottom=0;right=0;editable=1;overflow=hidden;" vertex="1" parent="J5P5tDlpoE1sLNyTf0Wl-50">
          <mxGeometry width="33.75" height="28" as="geometry" />
        </mxCell>
        <mxCell id="J5P5tDlpoE1sLNyTf0Wl-52" value="provider_name" style="shape=partialRectangle;connectable=0;fillColor=none;top=0;left=0;bottom=0;right=0;align=left;spacingLeft=6;overflow=hidden;" vertex="1" parent="J5P5tDlpoE1sLNyTf0Wl-50">
          <mxGeometry x="33.75" width="179" height="28" as="geometry" />
        </mxCell>
        <mxCell id="J5P5tDlpoE1sLNyTf0Wl-69" value="" style="shape=partialRectangle;collapsible=0;dropTarget=0;pointerEvents=0;fillColor=none;top=0;left=0;bottom=0;right=0;points=[[0,0.5],[1,0.5]];portConstraint=eastwest;" vertex="1" parent="J5P5tDlpoE1sLNyTf0Wl-43">
          <mxGeometry y="90" width="212.75" height="30" as="geometry" />
        </mxCell>
        <mxCell id="J5P5tDlpoE1sLNyTf0Wl-70" value="" style="shape=partialRectangle;connectable=0;fillColor=none;top=0;left=0;bottom=0;right=0;editable=1;overflow=hidden;" vertex="1" parent="J5P5tDlpoE1sLNyTf0Wl-69">
          <mxGeometry width="33.75" height="30" as="geometry" />
        </mxCell>
        <mxCell id="J5P5tDlpoE1sLNyTf0Wl-71" value="subscriber_id" style="shape=partialRectangle;connectable=0;fillColor=none;top=0;left=0;bottom=0;right=0;align=left;spacingLeft=6;overflow=hidden;" vertex="1" parent="J5P5tDlpoE1sLNyTf0Wl-69">
          <mxGeometry x="33.75" width="179" height="30" as="geometry" />
        </mxCell>
        <mxCell id="J5P5tDlpoE1sLNyTf0Wl-72" value="" style="shape=partialRectangle;collapsible=0;dropTarget=0;pointerEvents=0;fillColor=none;top=0;left=0;bottom=0;right=0;points=[[0,0.5],[1,0.5]];portConstraint=eastwest;" vertex="1" parent="J5P5tDlpoE1sLNyTf0Wl-43">
          <mxGeometry y="120" width="212.75" height="30" as="geometry" />
        </mxCell>
        <mxCell id="J5P5tDlpoE1sLNyTf0Wl-73" value="" style="shape=partialRectangle;connectable=0;fillColor=none;top=0;left=0;bottom=0;right=0;editable=1;overflow=hidden;" vertex="1" parent="J5P5tDlpoE1sLNyTf0Wl-72">
          <mxGeometry width="33.75" height="30" as="geometry" />
        </mxCell>
        <mxCell id="J5P5tDlpoE1sLNyTf0Wl-74" value="coverage_type" style="shape=partialRectangle;connectable=0;fillColor=none;top=0;left=0;bottom=0;right=0;align=left;spacingLeft=6;overflow=hidden;" vertex="1" parent="J5P5tDlpoE1sLNyTf0Wl-72">
          <mxGeometry x="33.75" width="179" height="30" as="geometry" />
        </mxCell>
        <mxCell id="J5P5tDlpoE1sLNyTf0Wl-76" value="" style="shape=partialRectangle;collapsible=0;dropTarget=0;pointerEvents=0;fillColor=none;top=0;left=0;bottom=0;right=0;points=[[0,0.5],[1,0.5]];portConstraint=eastwest;" vertex="1" parent="J5P5tDlpoE1sLNyTf0Wl-43">
          <mxGeometry y="150" width="212.75" height="33" as="geometry" />
        </mxCell>
        <mxCell id="J5P5tDlpoE1sLNyTf0Wl-77" value="" style="shape=partialRectangle;connectable=0;fillColor=none;top=0;left=0;bottom=0;right=0;editable=1;overflow=hidden;" vertex="1" parent="J5P5tDlpoE1sLNyTf0Wl-76">
          <mxGeometry width="33.75" height="33" as="geometry" />
        </mxCell>
        <mxCell id="J5P5tDlpoE1sLNyTf0Wl-78" value="coverage_amount" style="shape=partialRectangle;connectable=0;fillColor=none;top=0;left=0;bottom=0;right=0;align=left;spacingLeft=6;overflow=hidden;" vertex="1" parent="J5P5tDlpoE1sLNyTf0Wl-76">
          <mxGeometry x="33.75" width="179" height="33" as="geometry" />
        </mxCell>
        <mxCell id="J5P5tDlpoE1sLNyTf0Wl-56" value="Billing" style="shape=table;startSize=30;container=1;collapsible=1;childLayout=tableLayout;fixedRows=1;rowLines=0;fontStyle=1;align=center;resizeLast=1;" vertex="1" parent="1">
          <mxGeometry x="482" y="600" width="180" height="160" as="geometry" />
        </mxCell>
        <mxCell id="J5P5tDlpoE1sLNyTf0Wl-57" value="" style="shape=partialRectangle;collapsible=0;dropTarget=0;pointerEvents=0;fillColor=none;top=0;left=0;bottom=1;right=0;points=[[0,0.5],[1,0.5]];portConstraint=eastwest;" vertex="1" parent="J5P5tDlpoE1sLNyTf0Wl-56">
          <mxGeometry y="30" width="180" height="30" as="geometry" />
        </mxCell>
        <mxCell id="J5P5tDlpoE1sLNyTf0Wl-58" value="PK" style="shape=partialRectangle;connectable=0;fillColor=none;top=0;left=0;bottom=0;right=0;fontStyle=1;overflow=hidden;" vertex="1" parent="J5P5tDlpoE1sLNyTf0Wl-57">
          <mxGeometry width="30" height="30" as="geometry" />
        </mxCell>
        <mxCell id="J5P5tDlpoE1sLNyTf0Wl-59" value="billing_id" style="shape=partialRectangle;connectable=0;fillColor=none;top=0;left=0;bottom=0;right=0;align=left;spacingLeft=6;fontStyle=5;overflow=hidden;" vertex="1" parent="J5P5tDlpoE1sLNyTf0Wl-57">
          <mxGeometry x="30" width="150" height="30" as="geometry" />
        </mxCell>
        <mxCell id="J5P5tDlpoE1sLNyTf0Wl-60" value="" style="shape=partialRectangle;collapsible=0;dropTarget=0;pointerEvents=0;fillColor=none;top=0;left=0;bottom=0;right=0;points=[[0,0.5],[1,0.5]];portConstraint=eastwest;" vertex="1" parent="J5P5tDlpoE1sLNyTf0Wl-56">
          <mxGeometry y="60" width="180" height="30" as="geometry" />
        </mxCell>
        <mxCell id="J5P5tDlpoE1sLNyTf0Wl-61" value="" style="shape=partialRectangle;connectable=0;fillColor=none;top=0;left=0;bottom=0;right=0;editable=1;overflow=hidden;" vertex="1" parent="J5P5tDlpoE1sLNyTf0Wl-60">
          <mxGeometry width="30" height="30" as="geometry" />
        </mxCell>
        <mxCell id="J5P5tDlpoE1sLNyTf0Wl-62" value="insurance_id" style="shape=partialRectangle;connectable=0;fillColor=none;top=0;left=0;bottom=0;right=0;align=left;spacingLeft=6;overflow=hidden;" vertex="1" parent="J5P5tDlpoE1sLNyTf0Wl-60">
          <mxGeometry x="30" width="150" height="30" as="geometry" />
        </mxCell>
        <mxCell id="J5P5tDlpoE1sLNyTf0Wl-63" value="" style="shape=partialRectangle;collapsible=0;dropTarget=0;pointerEvents=0;fillColor=none;top=0;left=0;bottom=0;right=0;points=[[0,0.5],[1,0.5]];portConstraint=eastwest;" vertex="1" parent="J5P5tDlpoE1sLNyTf0Wl-56">
          <mxGeometry y="90" width="180" height="30" as="geometry" />
        </mxCell>
        <mxCell id="J5P5tDlpoE1sLNyTf0Wl-64" value="" style="shape=partialRectangle;connectable=0;fillColor=none;top=0;left=0;bottom=0;right=0;editable=1;overflow=hidden;" vertex="1" parent="J5P5tDlpoE1sLNyTf0Wl-63">
          <mxGeometry width="30" height="30" as="geometry" />
        </mxCell>
        <mxCell id="J5P5tDlpoE1sLNyTf0Wl-65" value="payment_id" style="shape=partialRectangle;connectable=0;fillColor=none;top=0;left=0;bottom=0;right=0;align=left;spacingLeft=6;overflow=hidden;" vertex="1" parent="J5P5tDlpoE1sLNyTf0Wl-63">
          <mxGeometry x="30" width="150" height="30" as="geometry" />
        </mxCell>
        <mxCell id="J5P5tDlpoE1sLNyTf0Wl-181" value="" style="shape=partialRectangle;collapsible=0;dropTarget=0;pointerEvents=0;fillColor=none;top=0;left=0;bottom=0;right=0;points=[[0,0.5],[1,0.5]];portConstraint=eastwest;" vertex="1" parent="J5P5tDlpoE1sLNyTf0Wl-56">
          <mxGeometry y="120" width="180" height="30" as="geometry" />
        </mxCell>
        <mxCell id="J5P5tDlpoE1sLNyTf0Wl-182" value="" style="shape=partialRectangle;connectable=0;fillColor=none;top=0;left=0;bottom=0;right=0;editable=1;overflow=hidden;" vertex="1" parent="J5P5tDlpoE1sLNyTf0Wl-181">
          <mxGeometry width="30" height="30" as="geometry" />
        </mxCell>
        <mxCell id="J5P5tDlpoE1sLNyTf0Wl-183" value="patient_id" style="shape=partialRectangle;connectable=0;fillColor=none;top=0;left=0;bottom=0;right=0;align=left;spacingLeft=6;overflow=hidden;" vertex="1" parent="J5P5tDlpoE1sLNyTf0Wl-181">
          <mxGeometry x="30" width="150" height="30" as="geometry" />
        </mxCell>
        <mxCell id="J5P5tDlpoE1sLNyTf0Wl-79" value="Payment" style="shape=table;startSize=30;container=1;collapsible=1;childLayout=tableLayout;fixedRows=1;rowLines=0;fontStyle=1;align=center;resizeLast=1;" vertex="1" parent="1">
          <mxGeometry x="787" y="599" width="180" height="160" as="geometry" />
        </mxCell>
        <mxCell id="J5P5tDlpoE1sLNyTf0Wl-80" value="" style="shape=partialRectangle;collapsible=0;dropTarget=0;pointerEvents=0;fillColor=none;top=0;left=0;bottom=1;right=0;points=[[0,0.5],[1,0.5]];portConstraint=eastwest;" vertex="1" parent="J5P5tDlpoE1sLNyTf0Wl-79">
          <mxGeometry y="30" width="180" height="30" as="geometry" />
        </mxCell>
        <mxCell id="J5P5tDlpoE1sLNyTf0Wl-81" value="PK" style="shape=partialRectangle;connectable=0;fillColor=none;top=0;left=0;bottom=0;right=0;fontStyle=1;overflow=hidden;" vertex="1" parent="J5P5tDlpoE1sLNyTf0Wl-80">
          <mxGeometry width="30" height="30" as="geometry" />
        </mxCell>
        <mxCell id="J5P5tDlpoE1sLNyTf0Wl-82" value="payment_id" style="shape=partialRectangle;connectable=0;fillColor=none;top=0;left=0;bottom=0;right=0;align=left;spacingLeft=6;fontStyle=5;overflow=hidden;" vertex="1" parent="J5P5tDlpoE1sLNyTf0Wl-80">
          <mxGeometry x="30" width="150" height="30" as="geometry" />
        </mxCell>
        <mxCell id="J5P5tDlpoE1sLNyTf0Wl-83" value="" style="shape=partialRectangle;collapsible=0;dropTarget=0;pointerEvents=0;fillColor=none;top=0;left=0;bottom=0;right=0;points=[[0,0.5],[1,0.5]];portConstraint=eastwest;" vertex="1" parent="J5P5tDlpoE1sLNyTf0Wl-79">
          <mxGeometry y="60" width="180" height="30" as="geometry" />
        </mxCell>
        <mxCell id="J5P5tDlpoE1sLNyTf0Wl-84" value="" style="shape=partialRectangle;connectable=0;fillColor=none;top=0;left=0;bottom=0;right=0;editable=1;overflow=hidden;" vertex="1" parent="J5P5tDlpoE1sLNyTf0Wl-83">
          <mxGeometry width="30" height="30" as="geometry" />
        </mxCell>
        <mxCell id="J5P5tDlpoE1sLNyTf0Wl-85" value="owed_amount" style="shape=partialRectangle;connectable=0;fillColor=none;top=0;left=0;bottom=0;right=0;align=left;spacingLeft=6;overflow=hidden;" vertex="1" parent="J5P5tDlpoE1sLNyTf0Wl-83">
          <mxGeometry x="30" width="150" height="30" as="geometry" />
        </mxCell>
        <mxCell id="J5P5tDlpoE1sLNyTf0Wl-86" value="" style="shape=partialRectangle;collapsible=0;dropTarget=0;pointerEvents=0;fillColor=none;top=0;left=0;bottom=0;right=0;points=[[0,0.5],[1,0.5]];portConstraint=eastwest;" vertex="1" parent="J5P5tDlpoE1sLNyTf0Wl-79">
          <mxGeometry y="90" width="180" height="30" as="geometry" />
        </mxCell>
        <mxCell id="J5P5tDlpoE1sLNyTf0Wl-87" value="" style="shape=partialRectangle;connectable=0;fillColor=none;top=0;left=0;bottom=0;right=0;editable=1;overflow=hidden;" vertex="1" parent="J5P5tDlpoE1sLNyTf0Wl-86">
          <mxGeometry width="30" height="30" as="geometry" />
        </mxCell>
        <mxCell id="J5P5tDlpoE1sLNyTf0Wl-88" value="paid_by_insurance" style="shape=partialRectangle;connectable=0;fillColor=none;top=0;left=0;bottom=0;right=0;align=left;spacingLeft=6;overflow=hidden;" vertex="1" parent="J5P5tDlpoE1sLNyTf0Wl-86">
          <mxGeometry x="30" width="150" height="30" as="geometry" />
        </mxCell>
        <mxCell id="J5P5tDlpoE1sLNyTf0Wl-89" value="" style="shape=partialRectangle;collapsible=0;dropTarget=0;pointerEvents=0;fillColor=none;top=0;left=0;bottom=0;right=0;points=[[0,0.5],[1,0.5]];portConstraint=eastwest;" vertex="1" parent="J5P5tDlpoE1sLNyTf0Wl-79">
          <mxGeometry y="120" width="180" height="30" as="geometry" />
        </mxCell>
        <mxCell id="J5P5tDlpoE1sLNyTf0Wl-90" value="" style="shape=partialRectangle;connectable=0;fillColor=none;top=0;left=0;bottom=0;right=0;editable=1;overflow=hidden;" vertex="1" parent="J5P5tDlpoE1sLNyTf0Wl-89">
          <mxGeometry width="30" height="30" as="geometry" />
        </mxCell>
        <mxCell id="J5P5tDlpoE1sLNyTf0Wl-91" value="paid_by_patient" style="shape=partialRectangle;connectable=0;fillColor=none;top=0;left=0;bottom=0;right=0;align=left;spacingLeft=6;overflow=hidden;" vertex="1" parent="J5P5tDlpoE1sLNyTf0Wl-89">
          <mxGeometry x="30" width="150" height="30" as="geometry" />
        </mxCell>
        <mxCell id="J5P5tDlpoE1sLNyTf0Wl-92" value="MedicalRecord" style="shape=table;startSize=30;container=1;collapsible=1;childLayout=tableLayout;fixedRows=1;rowLines=0;fontStyle=1;align=center;resizeLast=1;" vertex="1" parent="1">
          <mxGeometry x="202" y="862" width="180" height="159.75" as="geometry" />
        </mxCell>
        <mxCell id="J5P5tDlpoE1sLNyTf0Wl-93" value="" style="shape=partialRectangle;collapsible=0;dropTarget=0;pointerEvents=0;fillColor=none;top=0;left=0;bottom=1;right=0;points=[[0,0.5],[1,0.5]];portConstraint=eastwest;" vertex="1" parent="J5P5tDlpoE1sLNyTf0Wl-92">
          <mxGeometry y="30" width="180" height="30" as="geometry" />
        </mxCell>
        <mxCell id="J5P5tDlpoE1sLNyTf0Wl-94" value="PK" style="shape=partialRectangle;connectable=0;fillColor=none;top=0;left=0;bottom=0;right=0;fontStyle=1;overflow=hidden;" vertex="1" parent="J5P5tDlpoE1sLNyTf0Wl-93">
          <mxGeometry width="30" height="30" as="geometry" />
        </mxCell>
        <mxCell id="J5P5tDlpoE1sLNyTf0Wl-95" value="record_id" style="shape=partialRectangle;connectable=0;fillColor=none;top=0;left=0;bottom=0;right=0;align=left;spacingLeft=6;fontStyle=5;overflow=hidden;" vertex="1" parent="J5P5tDlpoE1sLNyTf0Wl-93">
          <mxGeometry x="30" width="150" height="30" as="geometry" />
        </mxCell>
        <mxCell id="J5P5tDlpoE1sLNyTf0Wl-96" value="" style="shape=partialRectangle;collapsible=0;dropTarget=0;pointerEvents=0;fillColor=none;top=0;left=0;bottom=0;right=0;points=[[0,0.5],[1,0.5]];portConstraint=eastwest;" vertex="1" parent="J5P5tDlpoE1sLNyTf0Wl-92">
          <mxGeometry y="60" width="180" height="30" as="geometry" />
        </mxCell>
        <mxCell id="J5P5tDlpoE1sLNyTf0Wl-97" value="" style="shape=partialRectangle;connectable=0;fillColor=none;top=0;left=0;bottom=0;right=0;editable=1;overflow=hidden;" vertex="1" parent="J5P5tDlpoE1sLNyTf0Wl-96">
          <mxGeometry width="30" height="30" as="geometry" />
        </mxCell>
        <mxCell id="J5P5tDlpoE1sLNyTf0Wl-98" value="patient_id" style="shape=partialRectangle;connectable=0;fillColor=none;top=0;left=0;bottom=0;right=0;align=left;spacingLeft=6;overflow=hidden;" vertex="1" parent="J5P5tDlpoE1sLNyTf0Wl-96">
          <mxGeometry x="30" width="150" height="30" as="geometry" />
        </mxCell>
        <mxCell id="J5P5tDlpoE1sLNyTf0Wl-99" value="" style="shape=partialRectangle;collapsible=0;dropTarget=0;pointerEvents=0;fillColor=none;top=0;left=0;bottom=0;right=0;points=[[0,0.5],[1,0.5]];portConstraint=eastwest;" vertex="1" parent="J5P5tDlpoE1sLNyTf0Wl-92">
          <mxGeometry y="90" width="180" height="30" as="geometry" />
        </mxCell>
        <mxCell id="J5P5tDlpoE1sLNyTf0Wl-100" value="" style="shape=partialRectangle;connectable=0;fillColor=none;top=0;left=0;bottom=0;right=0;editable=1;overflow=hidden;" vertex="1" parent="J5P5tDlpoE1sLNyTf0Wl-99">
          <mxGeometry width="30" height="30" as="geometry" />
        </mxCell>
        <mxCell id="J5P5tDlpoE1sLNyTf0Wl-101" value="type" style="shape=partialRectangle;connectable=0;fillColor=none;top=0;left=0;bottom=0;right=0;align=left;spacingLeft=6;overflow=hidden;" vertex="1" parent="J5P5tDlpoE1sLNyTf0Wl-99">
          <mxGeometry x="30" width="150" height="30" as="geometry" />
        </mxCell>
        <mxCell id="J5P5tDlpoE1sLNyTf0Wl-119" value="" style="shape=partialRectangle;collapsible=0;dropTarget=0;pointerEvents=0;fillColor=none;top=0;left=0;bottom=0;right=0;points=[[0,0.5],[1,0.5]];portConstraint=eastwest;" vertex="1" parent="J5P5tDlpoE1sLNyTf0Wl-92">
          <mxGeometry y="120" width="180" height="30" as="geometry" />
        </mxCell>
        <mxCell id="J5P5tDlpoE1sLNyTf0Wl-120" value="" style="shape=partialRectangle;connectable=0;fillColor=none;top=0;left=0;bottom=0;right=0;editable=1;overflow=hidden;" vertex="1" parent="J5P5tDlpoE1sLNyTf0Wl-119">
          <mxGeometry width="30" height="30" as="geometry" />
        </mxCell>
        <mxCell id="J5P5tDlpoE1sLNyTf0Wl-121" value="detail" style="shape=partialRectangle;connectable=0;fillColor=none;top=0;left=0;bottom=0;right=0;align=left;spacingLeft=6;overflow=hidden;" vertex="1" parent="J5P5tDlpoE1sLNyTf0Wl-119">
          <mxGeometry x="30" width="150" height="30" as="geometry" />
        </mxCell>
        <mxCell id="J5P5tDlpoE1sLNyTf0Wl-105" value="Patient" style="shape=table;startSize=30;container=1;collapsible=1;childLayout=tableLayout;fixedRows=1;rowLines=0;fontStyle=1;align=center;resizeLast=1;" vertex="1" parent="1">
          <mxGeometry x="202" y="607" width="180" height="100" as="geometry" />
        </mxCell>
        <mxCell id="J5P5tDlpoE1sLNyTf0Wl-106" value="" style="shape=partialRectangle;collapsible=0;dropTarget=0;pointerEvents=0;fillColor=none;top=0;left=0;bottom=1;right=0;points=[[0,0.5],[1,0.5]];portConstraint=eastwest;" vertex="1" parent="J5P5tDlpoE1sLNyTf0Wl-105">
          <mxGeometry y="30" width="180" height="30" as="geometry" />
        </mxCell>
        <mxCell id="J5P5tDlpoE1sLNyTf0Wl-107" value="PK" style="shape=partialRectangle;connectable=0;fillColor=none;top=0;left=0;bottom=0;right=0;fontStyle=1;overflow=hidden;" vertex="1" parent="J5P5tDlpoE1sLNyTf0Wl-106">
          <mxGeometry width="30" height="30" as="geometry" />
        </mxCell>
        <mxCell id="J5P5tDlpoE1sLNyTf0Wl-108" value="patient_id" style="shape=partialRectangle;connectable=0;fillColor=none;top=0;left=0;bottom=0;right=0;align=left;spacingLeft=6;fontStyle=5;overflow=hidden;" vertex="1" parent="J5P5tDlpoE1sLNyTf0Wl-106">
          <mxGeometry x="30" width="150" height="30" as="geometry" />
        </mxCell>
        <mxCell id="J5P5tDlpoE1sLNyTf0Wl-109" value="" style="shape=partialRectangle;collapsible=0;dropTarget=0;pointerEvents=0;fillColor=none;top=0;left=0;bottom=0;right=0;points=[[0,0.5],[1,0.5]];portConstraint=eastwest;" vertex="1" parent="J5P5tDlpoE1sLNyTf0Wl-105">
          <mxGeometry y="60" width="180" height="30" as="geometry" />
        </mxCell>
        <mxCell id="J5P5tDlpoE1sLNyTf0Wl-110" value="" style="shape=partialRectangle;connectable=0;fillColor=none;top=0;left=0;bottom=0;right=0;editable=1;overflow=hidden;" vertex="1" parent="J5P5tDlpoE1sLNyTf0Wl-109">
          <mxGeometry width="30" height="30" as="geometry" />
        </mxCell>
        <mxCell id="J5P5tDlpoE1sLNyTf0Wl-111" value="" style="shape=partialRectangle;connectable=0;fillColor=none;top=0;left=0;bottom=0;right=0;align=left;spacingLeft=6;overflow=hidden;" vertex="1" parent="J5P5tDlpoE1sLNyTf0Wl-109">
          <mxGeometry x="30" width="150" height="30" as="geometry" />
        </mxCell>
        <mxCell id="J5P5tDlpoE1sLNyTf0Wl-118" value="" style="edgeStyle=entityRelationEdgeStyle;fontSize=12;html=1;endArrow=ERoneToMany;startArrow=ERmandOne;entryX=-0.011;entryY=0.033;entryDx=0;entryDy=0;entryPerimeter=0;exitX=1;exitY=0.767;exitDx=0;exitDy=0;exitPerimeter=0;" edge="1" parent="1" source="J5P5tDlpoE1sLNyTf0Wl-109" target="J5P5tDlpoE1sLNyTf0Wl-63">
          <mxGeometry width="100" height="100" relative="1" as="geometry">
            <mxPoint x="515" y="665" as="sourcePoint" />
            <mxPoint x="615" y="565" as="targetPoint" />
          </mxGeometry>
        </mxCell>
        <mxCell id="J5P5tDlpoE1sLNyTf0Wl-124" value="" style="fontSize=12;html=1;endArrow=ERzeroToMany;startArrow=ERmandOne;exitX=0.5;exitY=1;exitDx=0;exitDy=0;entryX=0.5;entryY=0;entryDx=0;entryDy=0;" edge="1" parent="1" source="J5P5tDlpoE1sLNyTf0Wl-105" target="J5P5tDlpoE1sLNyTf0Wl-92">
          <mxGeometry width="100" height="100" relative="1" as="geometry">
            <mxPoint x="295" y="820" as="sourcePoint" />
            <mxPoint x="395" y="720" as="targetPoint" />
          </mxGeometry>
        </mxCell>
        <mxCell id="J5P5tDlpoE1sLNyTf0Wl-125" value="" style="fontSize=12;html=1;endArrow=ERzeroToOne;startArrow=ERmandOne;entryX=0.47;entryY=0;entryDx=0;entryDy=0;entryPerimeter=0;exitX=0.5;exitY=1;exitDx=0;exitDy=0;" edge="1" parent="1" source="J5P5tDlpoE1sLNyTf0Wl-56" target="J5P5tDlpoE1sLNyTf0Wl-43">
          <mxGeometry width="100" height="100" relative="1" as="geometry">
            <mxPoint x="551" y="765" as="sourcePoint" />
            <mxPoint x="664" y="633" as="targetPoint" />
          </mxGeometry>
        </mxCell>
        <mxCell id="J5P5tDlpoE1sLNyTf0Wl-126" value="" style="edgeStyle=entityRelationEdgeStyle;fontSize=12;html=1;endArrow=ERmandOne;startArrow=ERmandOne;entryX=0;entryY=0.5;entryDx=0;entryDy=0;exitX=1;exitY=0.5;exitDx=0;exitDy=0;" edge="1" parent="1" source="J5P5tDlpoE1sLNyTf0Wl-60" target="J5P5tDlpoE1sLNyTf0Wl-83">
          <mxGeometry width="100" height="100" relative="1" as="geometry">
            <mxPoint x="660" y="666" as="sourcePoint" />
            <mxPoint x="760" y="566" as="targetPoint" />
          </mxGeometry>
        </mxCell>
        <mxCell id="J5P5tDlpoE1sLNyTf0Wl-162" value="Provider" style="shape=table;startSize=24;container=1;collapsible=1;childLayout=tableLayout;fixedRows=1;rowLines=0;fontStyle=1;align=center;resizeLast=1;" vertex="1" parent="1">
          <mxGeometry x="809" y="825.1300000000001" width="180" height="220" as="geometry" />
        </mxCell>
        <mxCell id="J5P5tDlpoE1sLNyTf0Wl-163" value="" style="shape=partialRectangle;collapsible=0;dropTarget=0;pointerEvents=0;fillColor=none;top=0;left=0;bottom=1;right=0;points=[[0,0.5],[1,0.5]];portConstraint=eastwest;" vertex="1" parent="J5P5tDlpoE1sLNyTf0Wl-162">
          <mxGeometry y="24" width="180" height="30" as="geometry" />
        </mxCell>
        <mxCell id="J5P5tDlpoE1sLNyTf0Wl-164" value="PK" style="shape=partialRectangle;connectable=0;fillColor=none;top=0;left=0;bottom=0;right=0;fontStyle=1;overflow=hidden;" vertex="1" parent="J5P5tDlpoE1sLNyTf0Wl-163">
          <mxGeometry width="30" height="30" as="geometry" />
        </mxCell>
        <mxCell id="J5P5tDlpoE1sLNyTf0Wl-165" value="provider_id" style="shape=partialRectangle;connectable=0;fillColor=none;top=0;left=0;bottom=0;right=0;align=left;spacingLeft=6;fontStyle=5;overflow=hidden;" vertex="1" parent="J5P5tDlpoE1sLNyTf0Wl-163">
          <mxGeometry x="30" width="150" height="30" as="geometry" />
        </mxCell>
        <mxCell id="J5P5tDlpoE1sLNyTf0Wl-166" value="" style="shape=partialRectangle;collapsible=0;dropTarget=0;pointerEvents=0;fillColor=none;top=0;left=0;bottom=0;right=0;points=[[0,0.5],[1,0.5]];portConstraint=eastwest;" vertex="1" parent="J5P5tDlpoE1sLNyTf0Wl-162">
          <mxGeometry y="54" width="180" height="30" as="geometry" />
        </mxCell>
        <mxCell id="J5P5tDlpoE1sLNyTf0Wl-167" value="" style="shape=partialRectangle;connectable=0;fillColor=none;top=0;left=0;bottom=0;right=0;editable=1;overflow=hidden;" vertex="1" parent="J5P5tDlpoE1sLNyTf0Wl-166">
          <mxGeometry width="30" height="30" as="geometry" />
        </mxCell>
        <mxCell id="J5P5tDlpoE1sLNyTf0Wl-168" value="subscriber_id" style="shape=partialRectangle;connectable=0;fillColor=none;top=0;left=0;bottom=0;right=0;align=left;spacingLeft=6;overflow=hidden;" vertex="1" parent="J5P5tDlpoE1sLNyTf0Wl-166">
          <mxGeometry x="30" width="150" height="30" as="geometry" />
        </mxCell>
        <mxCell id="J5P5tDlpoE1sLNyTf0Wl-169" value="" style="shape=partialRectangle;collapsible=0;dropTarget=0;pointerEvents=0;fillColor=none;top=0;left=0;bottom=0;right=0;points=[[0,0.5],[1,0.5]];portConstraint=eastwest;" vertex="1" parent="J5P5tDlpoE1sLNyTf0Wl-162">
          <mxGeometry y="84" width="180" height="30" as="geometry" />
        </mxCell>
        <mxCell id="J5P5tDlpoE1sLNyTf0Wl-170" value="" style="shape=partialRectangle;connectable=0;fillColor=none;top=0;left=0;bottom=0;right=0;editable=1;overflow=hidden;" vertex="1" parent="J5P5tDlpoE1sLNyTf0Wl-169">
          <mxGeometry width="30" height="30" as="geometry" />
        </mxCell>
        <mxCell id="J5P5tDlpoE1sLNyTf0Wl-171" value="treatment" style="shape=partialRectangle;connectable=0;fillColor=none;top=0;left=0;bottom=0;right=0;align=left;spacingLeft=6;overflow=hidden;" vertex="1" parent="J5P5tDlpoE1sLNyTf0Wl-169">
          <mxGeometry x="30" width="150" height="30" as="geometry" />
        </mxCell>
        <mxCell id="J5P5tDlpoE1sLNyTf0Wl-172" value="" style="shape=partialRectangle;collapsible=0;dropTarget=0;pointerEvents=0;fillColor=none;top=0;left=0;bottom=0;right=0;points=[[0,0.5],[1,0.5]];portConstraint=eastwest;" vertex="1" parent="J5P5tDlpoE1sLNyTf0Wl-162">
          <mxGeometry y="114" width="180" height="30" as="geometry" />
        </mxCell>
        <mxCell id="J5P5tDlpoE1sLNyTf0Wl-173" value="" style="shape=partialRectangle;connectable=0;fillColor=none;top=0;left=0;bottom=0;right=0;editable=1;overflow=hidden;" vertex="1" parent="J5P5tDlpoE1sLNyTf0Wl-172">
          <mxGeometry width="30" height="30" as="geometry" />
        </mxCell>
        <mxCell id="J5P5tDlpoE1sLNyTf0Wl-174" value="date" style="shape=partialRectangle;connectable=0;fillColor=none;top=0;left=0;bottom=0;right=0;align=left;spacingLeft=6;overflow=hidden;" vertex="1" parent="J5P5tDlpoE1sLNyTf0Wl-172">
          <mxGeometry x="30" width="150" height="30" as="geometry" />
        </mxCell>
        <mxCell id="J5P5tDlpoE1sLNyTf0Wl-175" value="" style="shape=partialRectangle;collapsible=0;dropTarget=0;pointerEvents=0;fillColor=none;top=0;left=0;bottom=0;right=0;points=[[0,0.5],[1,0.5]];portConstraint=eastwest;" vertex="1" parent="J5P5tDlpoE1sLNyTf0Wl-162">
          <mxGeometry y="144" width="180" height="30" as="geometry" />
        </mxCell>
        <mxCell id="J5P5tDlpoE1sLNyTf0Wl-176" value="" style="shape=partialRectangle;connectable=0;fillColor=none;top=0;left=0;bottom=0;right=0;editable=1;overflow=hidden;" vertex="1" parent="J5P5tDlpoE1sLNyTf0Wl-175">
          <mxGeometry width="30" height="30" as="geometry" />
        </mxCell>
        <mxCell id="J5P5tDlpoE1sLNyTf0Wl-177" value="bill" style="shape=partialRectangle;connectable=0;fillColor=none;top=0;left=0;bottom=0;right=0;align=left;spacingLeft=6;overflow=hidden;" vertex="1" parent="J5P5tDlpoE1sLNyTf0Wl-175">
          <mxGeometry x="30" width="150" height="30" as="geometry" />
        </mxCell>
        <mxCell id="J5P5tDlpoE1sLNyTf0Wl-178" value="" style="shape=partialRectangle;collapsible=0;dropTarget=0;pointerEvents=0;fillColor=none;top=0;left=0;bottom=0;right=0;points=[[0,0.5],[1,0.5]];portConstraint=eastwest;" vertex="1" parent="J5P5tDlpoE1sLNyTf0Wl-162">
          <mxGeometry y="174" width="180" height="30" as="geometry" />
        </mxCell>
        <mxCell id="J5P5tDlpoE1sLNyTf0Wl-179" value="" style="shape=partialRectangle;connectable=0;fillColor=none;top=0;left=0;bottom=0;right=0;editable=1;overflow=hidden;" vertex="1" parent="J5P5tDlpoE1sLNyTf0Wl-178">
          <mxGeometry width="30" height="30" as="geometry" />
        </mxCell>
        <mxCell id="J5P5tDlpoE1sLNyTf0Wl-180" value="paid_amount" style="shape=partialRectangle;connectable=0;fillColor=none;top=0;left=0;bottom=0;right=0;align=left;spacingLeft=6;overflow=hidden;" vertex="1" parent="J5P5tDlpoE1sLNyTf0Wl-178">
          <mxGeometry x="30" width="150" height="30" as="geometry" />
        </mxCell>
        <mxCell id="J5P5tDlpoE1sLNyTf0Wl-184" style="edgeStyle=none;rounded=0;orthogonalLoop=1;jettySize=auto;html=1;exitX=0.75;exitY=0;exitDx=0;exitDy=0;" edge="1" parent="1" source="J5P5tDlpoE1sLNyTf0Wl-162" target="J5P5tDlpoE1sLNyTf0Wl-162">
          <mxGeometry relative="1" as="geometry" />
        </mxCell>
        <mxCell id="J5P5tDlpoE1sLNyTf0Wl-185" value="hygienist" style="shape=table;startSize=30;container=1;collapsible=1;childLayout=tableLayout;fixedRows=1;rowLines=0;fontStyle=1;align=center;resizeLast=1;" vertex="1" parent="1">
          <mxGeometry x="588" y="1094" width="180" height="160" as="geometry" />
        </mxCell>
        <mxCell id="J5P5tDlpoE1sLNyTf0Wl-186" value="" style="shape=partialRectangle;collapsible=0;dropTarget=0;pointerEvents=0;fillColor=none;top=0;left=0;bottom=1;right=0;points=[[0,0.5],[1,0.5]];portConstraint=eastwest;" vertex="1" parent="J5P5tDlpoE1sLNyTf0Wl-185">
          <mxGeometry y="30" width="180" height="30" as="geometry" />
        </mxCell>
        <mxCell id="J5P5tDlpoE1sLNyTf0Wl-187" value="PK" style="shape=partialRectangle;connectable=0;fillColor=none;top=0;left=0;bottom=0;right=0;fontStyle=1;overflow=hidden;" vertex="1" parent="J5P5tDlpoE1sLNyTf0Wl-186">
          <mxGeometry width="30" height="30" as="geometry" />
        </mxCell>
        <mxCell id="J5P5tDlpoE1sLNyTf0Wl-188" value="UniqueID" style="shape=partialRectangle;connectable=0;fillColor=none;top=0;left=0;bottom=0;right=0;align=left;spacingLeft=6;fontStyle=5;overflow=hidden;" vertex="1" parent="J5P5tDlpoE1sLNyTf0Wl-186">
          <mxGeometry x="30" width="150" height="30" as="geometry" />
        </mxCell>
        <mxCell id="J5P5tDlpoE1sLNyTf0Wl-189" value="" style="shape=partialRectangle;collapsible=0;dropTarget=0;pointerEvents=0;fillColor=none;top=0;left=0;bottom=0;right=0;points=[[0,0.5],[1,0.5]];portConstraint=eastwest;" vertex="1" parent="J5P5tDlpoE1sLNyTf0Wl-185">
          <mxGeometry y="60" width="180" height="30" as="geometry" />
        </mxCell>
        <mxCell id="J5P5tDlpoE1sLNyTf0Wl-190" value="" style="shape=partialRectangle;connectable=0;fillColor=none;top=0;left=0;bottom=0;right=0;editable=1;overflow=hidden;" vertex="1" parent="J5P5tDlpoE1sLNyTf0Wl-189">
          <mxGeometry width="30" height="30" as="geometry" />
        </mxCell>
        <mxCell id="J5P5tDlpoE1sLNyTf0Wl-191" value="serving" style="shape=partialRectangle;connectable=0;fillColor=none;top=0;left=0;bottom=0;right=0;align=left;spacingLeft=6;overflow=hidden;" vertex="1" parent="J5P5tDlpoE1sLNyTf0Wl-189">
          <mxGeometry x="30" width="150" height="30" as="geometry" />
        </mxCell>
        <mxCell id="J5P5tDlpoE1sLNyTf0Wl-192" value="" style="shape=partialRectangle;collapsible=0;dropTarget=0;pointerEvents=0;fillColor=none;top=0;left=0;bottom=0;right=0;points=[[0,0.5],[1,0.5]];portConstraint=eastwest;" vertex="1" parent="J5P5tDlpoE1sLNyTf0Wl-185">
          <mxGeometry y="90" width="180" height="30" as="geometry" />
        </mxCell>
        <mxCell id="J5P5tDlpoE1sLNyTf0Wl-193" value="" style="shape=partialRectangle;connectable=0;fillColor=none;top=0;left=0;bottom=0;right=0;editable=1;overflow=hidden;" vertex="1" parent="J5P5tDlpoE1sLNyTf0Wl-192">
          <mxGeometry width="30" height="30" as="geometry" />
        </mxCell>
        <mxCell id="J5P5tDlpoE1sLNyTf0Wl-194" value="Row 2" style="shape=partialRectangle;connectable=0;fillColor=none;top=0;left=0;bottom=0;right=0;align=left;spacingLeft=6;overflow=hidden;" vertex="1" parent="J5P5tDlpoE1sLNyTf0Wl-192">
          <mxGeometry x="30" width="150" height="30" as="geometry" />
        </mxCell>
        <mxCell id="J5P5tDlpoE1sLNyTf0Wl-195" value="" style="shape=partialRectangle;collapsible=0;dropTarget=0;pointerEvents=0;fillColor=none;top=0;left=0;bottom=0;right=0;points=[[0,0.5],[1,0.5]];portConstraint=eastwest;" vertex="1" parent="J5P5tDlpoE1sLNyTf0Wl-185">
          <mxGeometry y="120" width="180" height="30" as="geometry" />
        </mxCell>
        <mxCell id="J5P5tDlpoE1sLNyTf0Wl-196" value="" style="shape=partialRectangle;connectable=0;fillColor=none;top=0;left=0;bottom=0;right=0;editable=1;overflow=hidden;" vertex="1" parent="J5P5tDlpoE1sLNyTf0Wl-195">
          <mxGeometry width="30" height="30" as="geometry" />
        </mxCell>
        <mxCell id="J5P5tDlpoE1sLNyTf0Wl-197" value="Row 3" style="shape=partialRectangle;connectable=0;fillColor=none;top=0;left=0;bottom=0;right=0;align=left;spacingLeft=6;overflow=hidden;" vertex="1" parent="J5P5tDlpoE1sLNyTf0Wl-195">
          <mxGeometry x="30" width="150" height="30" as="geometry" />
        </mxCell>
        <mxCell id="J5P5tDlpoE1sLNyTf0Wl-198" value="doctor" style="shape=table;startSize=30;container=1;collapsible=1;childLayout=tableLayout;fixedRows=1;rowLines=0;fontStyle=1;align=center;resizeLast=1;" vertex="1" parent="1">
          <mxGeometry x="872" y="1306" width="180" height="160" as="geometry" />
        </mxCell>
        <mxCell id="J5P5tDlpoE1sLNyTf0Wl-199" value="" style="shape=partialRectangle;collapsible=0;dropTarget=0;pointerEvents=0;fillColor=none;top=0;left=0;bottom=1;right=0;points=[[0,0.5],[1,0.5]];portConstraint=eastwest;" vertex="1" parent="J5P5tDlpoE1sLNyTf0Wl-198">
          <mxGeometry y="30" width="180" height="30" as="geometry" />
        </mxCell>
        <mxCell id="J5P5tDlpoE1sLNyTf0Wl-200" value="PK" style="shape=partialRectangle;connectable=0;fillColor=none;top=0;left=0;bottom=0;right=0;fontStyle=1;overflow=hidden;" vertex="1" parent="J5P5tDlpoE1sLNyTf0Wl-199">
          <mxGeometry width="30" height="30" as="geometry" />
        </mxCell>
        <mxCell id="J5P5tDlpoE1sLNyTf0Wl-201" value="UniqueID" style="shape=partialRectangle;connectable=0;fillColor=none;top=0;left=0;bottom=0;right=0;align=left;spacingLeft=6;fontStyle=5;overflow=hidden;" vertex="1" parent="J5P5tDlpoE1sLNyTf0Wl-199">
          <mxGeometry x="30" width="150" height="30" as="geometry" />
        </mxCell>
        <mxCell id="J5P5tDlpoE1sLNyTf0Wl-202" value="" style="shape=partialRectangle;collapsible=0;dropTarget=0;pointerEvents=0;fillColor=none;top=0;left=0;bottom=0;right=0;points=[[0,0.5],[1,0.5]];portConstraint=eastwest;" vertex="1" parent="J5P5tDlpoE1sLNyTf0Wl-198">
          <mxGeometry y="60" width="180" height="30" as="geometry" />
        </mxCell>
        <mxCell id="J5P5tDlpoE1sLNyTf0Wl-203" value="" style="shape=partialRectangle;connectable=0;fillColor=none;top=0;left=0;bottom=0;right=0;editable=1;overflow=hidden;" vertex="1" parent="J5P5tDlpoE1sLNyTf0Wl-202">
          <mxGeometry width="30" height="30" as="geometry" />
        </mxCell>
        <mxCell id="J5P5tDlpoE1sLNyTf0Wl-204" value="Row 1" style="shape=partialRectangle;connectable=0;fillColor=none;top=0;left=0;bottom=0;right=0;align=left;spacingLeft=6;overflow=hidden;" vertex="1" parent="J5P5tDlpoE1sLNyTf0Wl-202">
          <mxGeometry x="30" width="150" height="30" as="geometry" />
        </mxCell>
        <mxCell id="J5P5tDlpoE1sLNyTf0Wl-205" value="" style="shape=partialRectangle;collapsible=0;dropTarget=0;pointerEvents=0;fillColor=none;top=0;left=0;bottom=0;right=0;points=[[0,0.5],[1,0.5]];portConstraint=eastwest;" vertex="1" parent="J5P5tDlpoE1sLNyTf0Wl-198">
          <mxGeometry y="90" width="180" height="30" as="geometry" />
        </mxCell>
        <mxCell id="J5P5tDlpoE1sLNyTf0Wl-206" value="" style="shape=partialRectangle;connectable=0;fillColor=none;top=0;left=0;bottom=0;right=0;editable=1;overflow=hidden;" vertex="1" parent="J5P5tDlpoE1sLNyTf0Wl-205">
          <mxGeometry width="30" height="30" as="geometry" />
        </mxCell>
        <mxCell id="J5P5tDlpoE1sLNyTf0Wl-207" value="Row 2" style="shape=partialRectangle;connectable=0;fillColor=none;top=0;left=0;bottom=0;right=0;align=left;spacingLeft=6;overflow=hidden;" vertex="1" parent="J5P5tDlpoE1sLNyTf0Wl-205">
          <mxGeometry x="30" width="150" height="30" as="geometry" />
        </mxCell>
        <mxCell id="J5P5tDlpoE1sLNyTf0Wl-208" value="" style="shape=partialRectangle;collapsible=0;dropTarget=0;pointerEvents=0;fillColor=none;top=0;left=0;bottom=0;right=0;points=[[0,0.5],[1,0.5]];portConstraint=eastwest;" vertex="1" parent="J5P5tDlpoE1sLNyTf0Wl-198">
          <mxGeometry y="120" width="180" height="30" as="geometry" />
        </mxCell>
        <mxCell id="J5P5tDlpoE1sLNyTf0Wl-209" value="" style="shape=partialRectangle;connectable=0;fillColor=none;top=0;left=0;bottom=0;right=0;editable=1;overflow=hidden;" vertex="1" parent="J5P5tDlpoE1sLNyTf0Wl-208">
          <mxGeometry width="30" height="30" as="geometry" />
        </mxCell>
        <mxCell id="J5P5tDlpoE1sLNyTf0Wl-210" value="Row 3" style="shape=partialRectangle;connectable=0;fillColor=none;top=0;left=0;bottom=0;right=0;align=left;spacingLeft=6;overflow=hidden;" vertex="1" parent="J5P5tDlpoE1sLNyTf0Wl-208">
          <mxGeometry x="30" width="150" height="30" as="geometry" />
        </mxCell>
        <mxCell id="J5P5tDlpoE1sLNyTf0Wl-211" value="patient" style="shape=table;startSize=30;container=1;collapsible=1;childLayout=tableLayout;fixedRows=1;rowLines=0;fontStyle=1;align=center;resizeLast=1;" vertex="1" parent="1">
          <mxGeometry x="317" y="1321" width="180" height="99.75" as="geometry" />
        </mxCell>
        <mxCell id="J5P5tDlpoE1sLNyTf0Wl-212" value="" style="shape=partialRectangle;collapsible=0;dropTarget=0;pointerEvents=0;fillColor=none;top=0;left=0;bottom=1;right=0;points=[[0,0.5],[1,0.5]];portConstraint=eastwest;" vertex="1" parent="J5P5tDlpoE1sLNyTf0Wl-211">
          <mxGeometry y="30" width="180" height="30" as="geometry" />
        </mxCell>
        <mxCell id="J5P5tDlpoE1sLNyTf0Wl-213" value="PK" style="shape=partialRectangle;connectable=0;fillColor=none;top=0;left=0;bottom=0;right=0;fontStyle=1;overflow=hidden;" vertex="1" parent="J5P5tDlpoE1sLNyTf0Wl-212">
          <mxGeometry width="30" height="30" as="geometry" />
        </mxCell>
        <mxCell id="J5P5tDlpoE1sLNyTf0Wl-214" value="UniqueID" style="shape=partialRectangle;connectable=0;fillColor=none;top=0;left=0;bottom=0;right=0;align=left;spacingLeft=6;fontStyle=5;overflow=hidden;" vertex="1" parent="J5P5tDlpoE1sLNyTf0Wl-212">
          <mxGeometry x="30" width="150" height="30" as="geometry" />
        </mxCell>
        <mxCell id="J5P5tDlpoE1sLNyTf0Wl-215" value="" style="shape=partialRectangle;collapsible=0;dropTarget=0;pointerEvents=0;fillColor=none;top=0;left=0;bottom=0;right=0;points=[[0,0.5],[1,0.5]];portConstraint=eastwest;" vertex="1" parent="J5P5tDlpoE1sLNyTf0Wl-211">
          <mxGeometry y="60" width="180" height="30" as="geometry" />
        </mxCell>
        <mxCell id="J5P5tDlpoE1sLNyTf0Wl-216" value="" style="shape=partialRectangle;connectable=0;fillColor=none;top=0;left=0;bottom=0;right=0;editable=1;overflow=hidden;" vertex="1" parent="J5P5tDlpoE1sLNyTf0Wl-215">
          <mxGeometry width="30" height="30" as="geometry" />
        </mxCell>
        <mxCell id="J5P5tDlpoE1sLNyTf0Wl-217" value="state" style="shape=partialRectangle;connectable=0;fillColor=none;top=0;left=0;bottom=0;right=0;align=left;spacingLeft=6;overflow=hidden;" vertex="1" parent="J5P5tDlpoE1sLNyTf0Wl-215">
          <mxGeometry x="30" width="150" height="30" as="geometry" />
        </mxCell>
        <mxCell id="J5P5tDlpoE1sLNyTf0Wl-224" value="serving" style="shape=table;startSize=30;container=1;collapsible=1;childLayout=tableLayout;fixedRows=1;rowLines=0;fontStyle=1;align=center;resizeLast=1;" vertex="1" parent="1">
          <mxGeometry x="597.75" y="1297" width="180" height="160" as="geometry" />
        </mxCell>
        <mxCell id="J5P5tDlpoE1sLNyTf0Wl-225" value="" style="shape=partialRectangle;collapsible=0;dropTarget=0;pointerEvents=0;fillColor=none;top=0;left=0;bottom=1;right=0;points=[[0,0.5],[1,0.5]];portConstraint=eastwest;" vertex="1" parent="J5P5tDlpoE1sLNyTf0Wl-224">
          <mxGeometry y="30" width="180" height="30" as="geometry" />
        </mxCell>
        <mxCell id="J5P5tDlpoE1sLNyTf0Wl-226" value="PK" style="shape=partialRectangle;connectable=0;fillColor=none;top=0;left=0;bottom=0;right=0;fontStyle=1;overflow=hidden;" vertex="1" parent="J5P5tDlpoE1sLNyTf0Wl-225">
          <mxGeometry width="30" height="30" as="geometry" />
        </mxCell>
        <mxCell id="J5P5tDlpoE1sLNyTf0Wl-227" value="date&#xa;room_id" style="shape=partialRectangle;connectable=0;fillColor=none;top=0;left=0;bottom=0;right=0;align=left;spacingLeft=6;fontStyle=5;overflow=hidden;" vertex="1" parent="J5P5tDlpoE1sLNyTf0Wl-225">
          <mxGeometry x="30" width="150" height="30" as="geometry" />
        </mxCell>
        <mxCell id="J5P5tDlpoE1sLNyTf0Wl-228" value="" style="shape=partialRectangle;collapsible=0;dropTarget=0;pointerEvents=0;fillColor=none;top=0;left=0;bottom=0;right=0;points=[[0,0.5],[1,0.5]];portConstraint=eastwest;" vertex="1" parent="J5P5tDlpoE1sLNyTf0Wl-224">
          <mxGeometry y="60" width="180" height="30" as="geometry" />
        </mxCell>
        <mxCell id="J5P5tDlpoE1sLNyTf0Wl-229" value="" style="shape=partialRectangle;connectable=0;fillColor=none;top=0;left=0;bottom=0;right=0;editable=1;overflow=hidden;" vertex="1" parent="J5P5tDlpoE1sLNyTf0Wl-228">
          <mxGeometry width="30" height="30" as="geometry" />
        </mxCell>
        <mxCell id="J5P5tDlpoE1sLNyTf0Wl-230" value="doctor_id" style="shape=partialRectangle;connectable=0;fillColor=none;top=0;left=0;bottom=0;right=0;align=left;spacingLeft=6;overflow=hidden;" vertex="1" parent="J5P5tDlpoE1sLNyTf0Wl-228">
          <mxGeometry x="30" width="150" height="30" as="geometry" />
        </mxCell>
        <mxCell id="J5P5tDlpoE1sLNyTf0Wl-231" value="" style="shape=partialRectangle;collapsible=0;dropTarget=0;pointerEvents=0;fillColor=none;top=0;left=0;bottom=0;right=0;points=[[0,0.5],[1,0.5]];portConstraint=eastwest;" vertex="1" parent="J5P5tDlpoE1sLNyTf0Wl-224">
          <mxGeometry y="90" width="180" height="30" as="geometry" />
        </mxCell>
        <mxCell id="J5P5tDlpoE1sLNyTf0Wl-232" value="" style="shape=partialRectangle;connectable=0;fillColor=none;top=0;left=0;bottom=0;right=0;editable=1;overflow=hidden;" vertex="1" parent="J5P5tDlpoE1sLNyTf0Wl-231">
          <mxGeometry width="30" height="30" as="geometry" />
        </mxCell>
        <mxCell id="J5P5tDlpoE1sLNyTf0Wl-233" value="patient_id" style="shape=partialRectangle;connectable=0;fillColor=none;top=0;left=0;bottom=0;right=0;align=left;spacingLeft=6;overflow=hidden;" vertex="1" parent="J5P5tDlpoE1sLNyTf0Wl-231">
          <mxGeometry x="30" width="150" height="30" as="geometry" />
        </mxCell>
        <mxCell id="J5P5tDlpoE1sLNyTf0Wl-234" value="" style="shape=partialRectangle;collapsible=0;dropTarget=0;pointerEvents=0;fillColor=none;top=0;left=0;bottom=0;right=0;points=[[0,0.5],[1,0.5]];portConstraint=eastwest;" vertex="1" parent="J5P5tDlpoE1sLNyTf0Wl-224">
          <mxGeometry y="120" width="180" height="30" as="geometry" />
        </mxCell>
        <mxCell id="J5P5tDlpoE1sLNyTf0Wl-235" value="" style="shape=partialRectangle;connectable=0;fillColor=none;top=0;left=0;bottom=0;right=0;editable=1;overflow=hidden;" vertex="1" parent="J5P5tDlpoE1sLNyTf0Wl-234">
          <mxGeometry width="30" height="30" as="geometry" />
        </mxCell>
        <mxCell id="J5P5tDlpoE1sLNyTf0Wl-236" value="Row 3" style="shape=partialRectangle;connectable=0;fillColor=none;top=0;left=0;bottom=0;right=0;align=left;spacingLeft=6;overflow=hidden;" vertex="1" parent="J5P5tDlpoE1sLNyTf0Wl-234">
          <mxGeometry x="30" width="150" height="30" as="geometry" />
        </mxCell>
        <mxCell id="J5P5tDlpoE1sLNyTf0Wl-237" value="room" style="shape=table;startSize=30;container=1;collapsible=1;childLayout=tableLayout;fixedRows=1;rowLines=0;fontStyle=1;align=center;resizeLast=1;" vertex="1" parent="1">
          <mxGeometry x="596" y="1563" width="180" height="160" as="geometry" />
        </mxCell>
        <mxCell id="J5P5tDlpoE1sLNyTf0Wl-238" value="" style="shape=partialRectangle;collapsible=0;dropTarget=0;pointerEvents=0;fillColor=none;top=0;left=0;bottom=1;right=0;points=[[0,0.5],[1,0.5]];portConstraint=eastwest;" vertex="1" parent="J5P5tDlpoE1sLNyTf0Wl-237">
          <mxGeometry y="30" width="180" height="30" as="geometry" />
        </mxCell>
        <mxCell id="J5P5tDlpoE1sLNyTf0Wl-239" value="PK" style="shape=partialRectangle;connectable=0;fillColor=none;top=0;left=0;bottom=0;right=0;fontStyle=1;overflow=hidden;" vertex="1" parent="J5P5tDlpoE1sLNyTf0Wl-238">
          <mxGeometry width="30" height="30" as="geometry" />
        </mxCell>
        <mxCell id="J5P5tDlpoE1sLNyTf0Wl-240" value="room_id" style="shape=partialRectangle;connectable=0;fillColor=none;top=0;left=0;bottom=0;right=0;align=left;spacingLeft=6;fontStyle=5;overflow=hidden;" vertex="1" parent="J5P5tDlpoE1sLNyTf0Wl-238">
          <mxGeometry x="30" width="150" height="30" as="geometry" />
        </mxCell>
        <mxCell id="J5P5tDlpoE1sLNyTf0Wl-241" value="" style="shape=partialRectangle;collapsible=0;dropTarget=0;pointerEvents=0;fillColor=none;top=0;left=0;bottom=0;right=0;points=[[0,0.5],[1,0.5]];portConstraint=eastwest;" vertex="1" parent="J5P5tDlpoE1sLNyTf0Wl-237">
          <mxGeometry y="60" width="180" height="30" as="geometry" />
        </mxCell>
        <mxCell id="J5P5tDlpoE1sLNyTf0Wl-242" value="" style="shape=partialRectangle;connectable=0;fillColor=none;top=0;left=0;bottom=0;right=0;editable=1;overflow=hidden;" vertex="1" parent="J5P5tDlpoE1sLNyTf0Wl-241">
          <mxGeometry width="30" height="30" as="geometry" />
        </mxCell>
        <mxCell id="J5P5tDlpoE1sLNyTf0Wl-243" value="Row 1" style="shape=partialRectangle;connectable=0;fillColor=none;top=0;left=0;bottom=0;right=0;align=left;spacingLeft=6;overflow=hidden;" vertex="1" parent="J5P5tDlpoE1sLNyTf0Wl-241">
          <mxGeometry x="30" width="150" height="30" as="geometry" />
        </mxCell>
        <mxCell id="J5P5tDlpoE1sLNyTf0Wl-244" value="" style="shape=partialRectangle;collapsible=0;dropTarget=0;pointerEvents=0;fillColor=none;top=0;left=0;bottom=0;right=0;points=[[0,0.5],[1,0.5]];portConstraint=eastwest;" vertex="1" parent="J5P5tDlpoE1sLNyTf0Wl-237">
          <mxGeometry y="90" width="180" height="30" as="geometry" />
        </mxCell>
        <mxCell id="J5P5tDlpoE1sLNyTf0Wl-245" value="" style="shape=partialRectangle;connectable=0;fillColor=none;top=0;left=0;bottom=0;right=0;editable=1;overflow=hidden;" vertex="1" parent="J5P5tDlpoE1sLNyTf0Wl-244">
          <mxGeometry width="30" height="30" as="geometry" />
        </mxCell>
        <mxCell id="J5P5tDlpoE1sLNyTf0Wl-246" value="Row 2" style="shape=partialRectangle;connectable=0;fillColor=none;top=0;left=0;bottom=0;right=0;align=left;spacingLeft=6;overflow=hidden;" vertex="1" parent="J5P5tDlpoE1sLNyTf0Wl-244">
          <mxGeometry x="30" width="150" height="30" as="geometry" />
        </mxCell>
        <mxCell id="J5P5tDlpoE1sLNyTf0Wl-247" value="" style="shape=partialRectangle;collapsible=0;dropTarget=0;pointerEvents=0;fillColor=none;top=0;left=0;bottom=0;right=0;points=[[0,0.5],[1,0.5]];portConstraint=eastwest;" vertex="1" parent="J5P5tDlpoE1sLNyTf0Wl-237">
          <mxGeometry y="120" width="180" height="30" as="geometry" />
        </mxCell>
        <mxCell id="J5P5tDlpoE1sLNyTf0Wl-248" value="" style="shape=partialRectangle;connectable=0;fillColor=none;top=0;left=0;bottom=0;right=0;editable=1;overflow=hidden;" vertex="1" parent="J5P5tDlpoE1sLNyTf0Wl-247">
          <mxGeometry width="30" height="30" as="geometry" />
        </mxCell>
        <mxCell id="J5P5tDlpoE1sLNyTf0Wl-249" value="Row 3" style="shape=partialRectangle;connectable=0;fillColor=none;top=0;left=0;bottom=0;right=0;align=left;spacingLeft=6;overflow=hidden;" vertex="1" parent="J5P5tDlpoE1sLNyTf0Wl-247">
          <mxGeometry x="30" width="150" height="30" as="geometry" />
        </mxCell>
        <mxCell id="J5P5tDlpoE1sLNyTf0Wl-251" value="" style="fontSize=12;html=1;endArrow=ERoneToMany;startArrow=ERmandOne;entryX=0.5;entryY=1;entryDx=0;entryDy=0;exitX=0.5;exitY=0;exitDx=0;exitDy=0;" edge="1" parent="1" source="J5P5tDlpoE1sLNyTf0Wl-237" target="J5P5tDlpoE1sLNyTf0Wl-224">
          <mxGeometry width="100" height="100" relative="1" as="geometry">
            <mxPoint x="674" y="1559" as="sourcePoint" />
            <mxPoint x="774" y="1459" as="targetPoint" />
          </mxGeometry>
        </mxCell>
        <mxCell id="J5P5tDlpoE1sLNyTf0Wl-253" value="" style="fontSize=12;html=1;endArrow=ERoneToMany;startArrow=ERmandOne;entryX=-0.004;entryY=0;entryDx=0;entryDy=0;exitX=0.994;exitY=0.167;exitDx=0;exitDy=0;exitPerimeter=0;entryPerimeter=0;" edge="1" parent="1" source="J5P5tDlpoE1sLNyTf0Wl-215" target="J5P5tDlpoE1sLNyTf0Wl-231">
          <mxGeometry width="100" height="100" relative="1" as="geometry">
            <mxPoint x="501.9200000000001" y="1392.01" as="sourcePoint" />
            <mxPoint x="530.75" y="1320" as="targetPoint" />
          </mxGeometry>
        </mxCell>
        <mxCell id="J5P5tDlpoE1sLNyTf0Wl-254" value="" style="fontSize=12;html=1;endArrow=ERoneToMany;startArrow=ERmandOne;" edge="1" parent="1" target="J5P5tDlpoE1sLNyTf0Wl-231">
          <mxGeometry width="100" height="100" relative="1" as="geometry">
            <mxPoint x="869" y="1400" as="sourcePoint" />
            <mxPoint x="697.75" y="1467" as="targetPoint" />
          </mxGeometry>
        </mxCell>
        <mxCell id="J5P5tDlpoE1sLNyTf0Wl-255" value="" style="fontSize=12;html=1;endArrow=ERoneToMany;startArrow=ERzeroToMany;exitX=0.5;exitY=0;exitDx=0;exitDy=0;" edge="1" parent="1" source="J5P5tDlpoE1sLNyTf0Wl-224">
          <mxGeometry width="100" height="100" relative="1" as="geometry">
            <mxPoint x="777.75" y="1264" as="sourcePoint" />
            <mxPoint x="688" y="1255" as="targetPoint" />
          </mxGeometry>
        </mxCell>
        <mxCell id="J5P5tDlpoE1sLNyTf0Wl-256" value="Loan" style="shape=table;startSize=30;container=1;collapsible=1;childLayout=tableLayout;fixedRows=1;rowLines=0;fontStyle=1;align=center;resizeLast=1;" vertex="1" parent="1">
          <mxGeometry x="518" y="69" width="180" height="160" as="geometry" />
        </mxCell>
        <mxCell id="J5P5tDlpoE1sLNyTf0Wl-257" value="" style="shape=partialRectangle;collapsible=0;dropTarget=0;pointerEvents=0;fillColor=none;top=0;left=0;bottom=1;right=0;points=[[0,0.5],[1,0.5]];portConstraint=eastwest;" vertex="1" parent="J5P5tDlpoE1sLNyTf0Wl-256">
          <mxGeometry y="30" width="180" height="30" as="geometry" />
        </mxCell>
        <mxCell id="J5P5tDlpoE1sLNyTf0Wl-258" value="PK" style="shape=partialRectangle;connectable=0;fillColor=none;top=0;left=0;bottom=0;right=0;fontStyle=1;overflow=hidden;" vertex="1" parent="J5P5tDlpoE1sLNyTf0Wl-257">
          <mxGeometry width="30" height="30" as="geometry" />
        </mxCell>
        <mxCell id="J5P5tDlpoE1sLNyTf0Wl-259" value="rec_id" style="shape=partialRectangle;connectable=0;fillColor=none;top=0;left=0;bottom=0;right=0;align=left;spacingLeft=6;fontStyle=5;overflow=hidden;" vertex="1" parent="J5P5tDlpoE1sLNyTf0Wl-257">
          <mxGeometry x="30" width="150" height="30" as="geometry" />
        </mxCell>
        <mxCell id="J5P5tDlpoE1sLNyTf0Wl-260" value="" style="shape=partialRectangle;collapsible=0;dropTarget=0;pointerEvents=0;fillColor=none;top=0;left=0;bottom=0;right=0;points=[[0,0.5],[1,0.5]];portConstraint=eastwest;" vertex="1" parent="J5P5tDlpoE1sLNyTf0Wl-256">
          <mxGeometry y="60" width="180" height="30" as="geometry" />
        </mxCell>
        <mxCell id="J5P5tDlpoE1sLNyTf0Wl-261" value="" style="shape=partialRectangle;connectable=0;fillColor=none;top=0;left=0;bottom=0;right=0;editable=1;overflow=hidden;" vertex="1" parent="J5P5tDlpoE1sLNyTf0Wl-260">
          <mxGeometry width="30" height="30" as="geometry" />
        </mxCell>
        <mxCell id="J5P5tDlpoE1sLNyTf0Wl-262" value="paid_date" style="shape=partialRectangle;connectable=0;fillColor=none;top=0;left=0;bottom=0;right=0;align=left;spacingLeft=6;overflow=hidden;" vertex="1" parent="J5P5tDlpoE1sLNyTf0Wl-260">
          <mxGeometry x="30" width="150" height="30" as="geometry" />
        </mxCell>
        <mxCell id="J5P5tDlpoE1sLNyTf0Wl-263" value="" style="shape=partialRectangle;collapsible=0;dropTarget=0;pointerEvents=0;fillColor=none;top=0;left=0;bottom=0;right=0;points=[[0,0.5],[1,0.5]];portConstraint=eastwest;" vertex="1" parent="J5P5tDlpoE1sLNyTf0Wl-256">
          <mxGeometry y="90" width="180" height="30" as="geometry" />
        </mxCell>
        <mxCell id="J5P5tDlpoE1sLNyTf0Wl-264" value="" style="shape=partialRectangle;connectable=0;fillColor=none;top=0;left=0;bottom=0;right=0;editable=1;overflow=hidden;" vertex="1" parent="J5P5tDlpoE1sLNyTf0Wl-263">
          <mxGeometry width="30" height="30" as="geometry" />
        </mxCell>
        <mxCell id="J5P5tDlpoE1sLNyTf0Wl-265" value="paid_amount" style="shape=partialRectangle;connectable=0;fillColor=none;top=0;left=0;bottom=0;right=0;align=left;spacingLeft=6;overflow=hidden;" vertex="1" parent="J5P5tDlpoE1sLNyTf0Wl-263">
          <mxGeometry x="30" width="150" height="30" as="geometry" />
        </mxCell>
        <mxCell id="J5P5tDlpoE1sLNyTf0Wl-266" value="" style="shape=partialRectangle;collapsible=0;dropTarget=0;pointerEvents=0;fillColor=none;top=0;left=0;bottom=0;right=0;points=[[0,0.5],[1,0.5]];portConstraint=eastwest;" vertex="1" parent="J5P5tDlpoE1sLNyTf0Wl-256">
          <mxGeometry y="120" width="180" height="30" as="geometry" />
        </mxCell>
        <mxCell id="J5P5tDlpoE1sLNyTf0Wl-267" value="" style="shape=partialRectangle;connectable=0;fillColor=none;top=0;left=0;bottom=0;right=0;editable=1;overflow=hidden;" vertex="1" parent="J5P5tDlpoE1sLNyTf0Wl-266">
          <mxGeometry width="30" height="30" as="geometry" />
        </mxCell>
        <mxCell id="J5P5tDlpoE1sLNyTf0Wl-268" value="owed_amount" style="shape=partialRectangle;connectable=0;fillColor=none;top=0;left=0;bottom=0;right=0;align=left;spacingLeft=6;overflow=hidden;" vertex="1" parent="J5P5tDlpoE1sLNyTf0Wl-266">
          <mxGeometry x="30" width="150" height="30" as="geometry" />
        </mxCell>
        <mxCell id="J5P5tDlpoE1sLNyTf0Wl-269" value="StartupCost" style="shape=table;startSize=30;container=1;collapsible=1;childLayout=tableLayout;fixedRows=1;rowLines=0;fontStyle=1;align=center;resizeLast=1;" vertex="1" parent="1">
          <mxGeometry x="760" y="69" width="180" height="190" as="geometry" />
        </mxCell>
        <mxCell id="J5P5tDlpoE1sLNyTf0Wl-270" value="" style="shape=partialRectangle;collapsible=0;dropTarget=0;pointerEvents=0;fillColor=none;top=0;left=0;bottom=1;right=0;points=[[0,0.5],[1,0.5]];portConstraint=eastwest;" vertex="1" parent="J5P5tDlpoE1sLNyTf0Wl-269">
          <mxGeometry y="30" width="180" height="30" as="geometry" />
        </mxCell>
        <mxCell id="J5P5tDlpoE1sLNyTf0Wl-271" value="PK" style="shape=partialRectangle;connectable=0;fillColor=none;top=0;left=0;bottom=0;right=0;fontStyle=1;overflow=hidden;" vertex="1" parent="J5P5tDlpoE1sLNyTf0Wl-270">
          <mxGeometry width="30" height="30" as="geometry" />
        </mxCell>
        <mxCell id="J5P5tDlpoE1sLNyTf0Wl-272" value="cost_id" style="shape=partialRectangle;connectable=0;fillColor=none;top=0;left=0;bottom=0;right=0;align=left;spacingLeft=6;fontStyle=5;overflow=hidden;" vertex="1" parent="J5P5tDlpoE1sLNyTf0Wl-270">
          <mxGeometry x="30" width="150" height="30" as="geometry" />
        </mxCell>
        <mxCell id="J5P5tDlpoE1sLNyTf0Wl-273" value="" style="shape=partialRectangle;collapsible=0;dropTarget=0;pointerEvents=0;fillColor=none;top=0;left=0;bottom=0;right=0;points=[[0,0.5],[1,0.5]];portConstraint=eastwest;" vertex="1" parent="J5P5tDlpoE1sLNyTf0Wl-269">
          <mxGeometry y="60" width="180" height="30" as="geometry" />
        </mxCell>
        <mxCell id="J5P5tDlpoE1sLNyTf0Wl-274" value="" style="shape=partialRectangle;connectable=0;fillColor=none;top=0;left=0;bottom=0;right=0;editable=1;overflow=hidden;" vertex="1" parent="J5P5tDlpoE1sLNyTf0Wl-273">
          <mxGeometry width="30" height="30" as="geometry" />
        </mxCell>
        <mxCell id="J5P5tDlpoE1sLNyTf0Wl-275" value="name" style="shape=partialRectangle;connectable=0;fillColor=none;top=0;left=0;bottom=0;right=0;align=left;spacingLeft=6;overflow=hidden;" vertex="1" parent="J5P5tDlpoE1sLNyTf0Wl-273">
          <mxGeometry x="30" width="150" height="30" as="geometry" />
        </mxCell>
        <mxCell id="J5P5tDlpoE1sLNyTf0Wl-276" value="" style="shape=partialRectangle;collapsible=0;dropTarget=0;pointerEvents=0;fillColor=none;top=0;left=0;bottom=0;right=0;points=[[0,0.5],[1,0.5]];portConstraint=eastwest;" vertex="1" parent="J5P5tDlpoE1sLNyTf0Wl-269">
          <mxGeometry y="90" width="180" height="30" as="geometry" />
        </mxCell>
        <mxCell id="J5P5tDlpoE1sLNyTf0Wl-277" value="" style="shape=partialRectangle;connectable=0;fillColor=none;top=0;left=0;bottom=0;right=0;editable=1;overflow=hidden;" vertex="1" parent="J5P5tDlpoE1sLNyTf0Wl-276">
          <mxGeometry width="30" height="30" as="geometry" />
        </mxCell>
        <mxCell id="J5P5tDlpoE1sLNyTf0Wl-278" value="function" style="shape=partialRectangle;connectable=0;fillColor=none;top=0;left=0;bottom=0;right=0;align=left;spacingLeft=6;overflow=hidden;" vertex="1" parent="J5P5tDlpoE1sLNyTf0Wl-276">
          <mxGeometry x="30" width="150" height="30" as="geometry" />
        </mxCell>
        <mxCell id="J5P5tDlpoE1sLNyTf0Wl-279" value="" style="shape=partialRectangle;collapsible=0;dropTarget=0;pointerEvents=0;fillColor=none;top=0;left=0;bottom=0;right=0;points=[[0,0.5],[1,0.5]];portConstraint=eastwest;" vertex="1" parent="J5P5tDlpoE1sLNyTf0Wl-269">
          <mxGeometry y="120" width="180" height="30" as="geometry" />
        </mxCell>
        <mxCell id="J5P5tDlpoE1sLNyTf0Wl-280" value="" style="shape=partialRectangle;connectable=0;fillColor=none;top=0;left=0;bottom=0;right=0;editable=1;overflow=hidden;" vertex="1" parent="J5P5tDlpoE1sLNyTf0Wl-279">
          <mxGeometry width="30" height="30" as="geometry" />
        </mxCell>
        <mxCell id="J5P5tDlpoE1sLNyTf0Wl-281" value="detail" style="shape=partialRectangle;connectable=0;fillColor=none;top=0;left=0;bottom=0;right=0;align=left;spacingLeft=6;overflow=hidden;" vertex="1" parent="J5P5tDlpoE1sLNyTf0Wl-279">
          <mxGeometry x="30" width="150" height="30" as="geometry" />
        </mxCell>
        <mxCell id="J5P5tDlpoE1sLNyTf0Wl-282" value="" style="shape=partialRectangle;collapsible=0;dropTarget=0;pointerEvents=0;fillColor=none;top=0;left=0;bottom=0;right=0;points=[[0,0.5],[1,0.5]];portConstraint=eastwest;" vertex="1" parent="J5P5tDlpoE1sLNyTf0Wl-269">
          <mxGeometry y="150" width="180" height="30" as="geometry" />
        </mxCell>
        <mxCell id="J5P5tDlpoE1sLNyTf0Wl-283" value="" style="shape=partialRectangle;connectable=0;fillColor=none;top=0;left=0;bottom=0;right=0;editable=1;overflow=hidden;" vertex="1" parent="J5P5tDlpoE1sLNyTf0Wl-282">
          <mxGeometry width="30" height="30" as="geometry" />
        </mxCell>
        <mxCell id="J5P5tDlpoE1sLNyTf0Wl-284" value="fee" style="shape=partialRectangle;connectable=0;fillColor=none;top=0;left=0;bottom=0;right=0;align=left;spacingLeft=6;overflow=hidden;" vertex="1" parent="J5P5tDlpoE1sLNyTf0Wl-282">
          <mxGeometry x="30" width="150" height="30" as="geometry" />
        </mxCell>
        <mxCell id="J5P5tDlpoE1sLNyTf0Wl-285" value="Staff" style="shape=table;startSize=30;container=1;collapsible=1;childLayout=tableLayout;fixedRows=1;rowLines=0;fontStyle=1;align=center;resizeLast=1;" vertex="1" parent="1">
          <mxGeometry x="536" y="321" width="180" height="160" as="geometry" />
        </mxCell>
        <mxCell id="J5P5tDlpoE1sLNyTf0Wl-286" value="" style="shape=partialRectangle;collapsible=0;dropTarget=0;pointerEvents=0;fillColor=none;top=0;left=0;bottom=1;right=0;points=[[0,0.5],[1,0.5]];portConstraint=eastwest;" vertex="1" parent="J5P5tDlpoE1sLNyTf0Wl-285">
          <mxGeometry y="30" width="180" height="30" as="geometry" />
        </mxCell>
        <mxCell id="J5P5tDlpoE1sLNyTf0Wl-287" value="PK" style="shape=partialRectangle;connectable=0;fillColor=none;top=0;left=0;bottom=0;right=0;fontStyle=1;overflow=hidden;" vertex="1" parent="J5P5tDlpoE1sLNyTf0Wl-286">
          <mxGeometry width="30" height="30" as="geometry" />
        </mxCell>
        <mxCell id="J5P5tDlpoE1sLNyTf0Wl-288" value="staff_id" style="shape=partialRectangle;connectable=0;fillColor=none;top=0;left=0;bottom=0;right=0;align=left;spacingLeft=6;fontStyle=5;overflow=hidden;" vertex="1" parent="J5P5tDlpoE1sLNyTf0Wl-286">
          <mxGeometry x="30" width="150" height="30" as="geometry" />
        </mxCell>
        <mxCell id="J5P5tDlpoE1sLNyTf0Wl-289" value="" style="shape=partialRectangle;collapsible=0;dropTarget=0;pointerEvents=0;fillColor=none;top=0;left=0;bottom=0;right=0;points=[[0,0.5],[1,0.5]];portConstraint=eastwest;" vertex="1" parent="J5P5tDlpoE1sLNyTf0Wl-285">
          <mxGeometry y="60" width="180" height="30" as="geometry" />
        </mxCell>
        <mxCell id="J5P5tDlpoE1sLNyTf0Wl-290" value="" style="shape=partialRectangle;connectable=0;fillColor=none;top=0;left=0;bottom=0;right=0;editable=1;overflow=hidden;" vertex="1" parent="J5P5tDlpoE1sLNyTf0Wl-289">
          <mxGeometry width="30" height="30" as="geometry" />
        </mxCell>
        <mxCell id="J5P5tDlpoE1sLNyTf0Wl-291" value="type" style="shape=partialRectangle;connectable=0;fillColor=none;top=0;left=0;bottom=0;right=0;align=left;spacingLeft=6;overflow=hidden;" vertex="1" parent="J5P5tDlpoE1sLNyTf0Wl-289">
          <mxGeometry x="30" width="150" height="30" as="geometry" />
        </mxCell>
        <mxCell id="J5P5tDlpoE1sLNyTf0Wl-292" value="" style="shape=partialRectangle;collapsible=0;dropTarget=0;pointerEvents=0;fillColor=none;top=0;left=0;bottom=0;right=0;points=[[0,0.5],[1,0.5]];portConstraint=eastwest;" vertex="1" parent="J5P5tDlpoE1sLNyTf0Wl-285">
          <mxGeometry y="90" width="180" height="30" as="geometry" />
        </mxCell>
        <mxCell id="J5P5tDlpoE1sLNyTf0Wl-293" value="" style="shape=partialRectangle;connectable=0;fillColor=none;top=0;left=0;bottom=0;right=0;editable=1;overflow=hidden;" vertex="1" parent="J5P5tDlpoE1sLNyTf0Wl-292">
          <mxGeometry width="30" height="30" as="geometry" />
        </mxCell>
        <mxCell id="J5P5tDlpoE1sLNyTf0Wl-294" value="salary" style="shape=partialRectangle;connectable=0;fillColor=none;top=0;left=0;bottom=0;right=0;align=left;spacingLeft=6;overflow=hidden;" vertex="1" parent="J5P5tDlpoE1sLNyTf0Wl-292">
          <mxGeometry x="30" width="150" height="30" as="geometry" />
        </mxCell>
        <mxCell id="J5P5tDlpoE1sLNyTf0Wl-295" value="" style="shape=partialRectangle;collapsible=0;dropTarget=0;pointerEvents=0;fillColor=none;top=0;left=0;bottom=0;right=0;points=[[0,0.5],[1,0.5]];portConstraint=eastwest;" vertex="1" parent="J5P5tDlpoE1sLNyTf0Wl-285">
          <mxGeometry y="120" width="180" height="30" as="geometry" />
        </mxCell>
        <mxCell id="J5P5tDlpoE1sLNyTf0Wl-296" value="" style="shape=partialRectangle;connectable=0;fillColor=none;top=0;left=0;bottom=0;right=0;editable=1;overflow=hidden;" vertex="1" parent="J5P5tDlpoE1sLNyTf0Wl-295">
          <mxGeometry width="30" height="30" as="geometry" />
        </mxCell>
        <mxCell id="J5P5tDlpoE1sLNyTf0Wl-297" value="Row 3" style="shape=partialRectangle;connectable=0;fillColor=none;top=0;left=0;bottom=0;right=0;align=left;spacingLeft=6;overflow=hidden;" vertex="1" parent="J5P5tDlpoE1sLNyTf0Wl-295">
          <mxGeometry x="30" width="150" height="30" as="geometry" />
        </mxCell>
        <mxCell id="J5P5tDlpoE1sLNyTf0Wl-298" value="license" style="shape=table;startSize=30;container=1;collapsible=1;childLayout=tableLayout;fixedRows=1;rowLines=0;fontStyle=1;align=center;resizeLast=1;" vertex="1" parent="1">
          <mxGeometry x="874" y="320" width="180" height="160" as="geometry" />
        </mxCell>
        <mxCell id="J5P5tDlpoE1sLNyTf0Wl-299" value="" style="shape=partialRectangle;collapsible=0;dropTarget=0;pointerEvents=0;fillColor=none;top=0;left=0;bottom=1;right=0;points=[[0,0.5],[1,0.5]];portConstraint=eastwest;" vertex="1" parent="J5P5tDlpoE1sLNyTf0Wl-298">
          <mxGeometry y="30" width="180" height="30" as="geometry" />
        </mxCell>
        <mxCell id="J5P5tDlpoE1sLNyTf0Wl-300" value="PK" style="shape=partialRectangle;connectable=0;fillColor=none;top=0;left=0;bottom=0;right=0;fontStyle=1;overflow=hidden;" vertex="1" parent="J5P5tDlpoE1sLNyTf0Wl-299">
          <mxGeometry width="30" height="30" as="geometry" />
        </mxCell>
        <mxCell id="J5P5tDlpoE1sLNyTf0Wl-301" value="license_id" style="shape=partialRectangle;connectable=0;fillColor=none;top=0;left=0;bottom=0;right=0;align=left;spacingLeft=6;fontStyle=5;overflow=hidden;" vertex="1" parent="J5P5tDlpoE1sLNyTf0Wl-299">
          <mxGeometry x="30" width="150" height="30" as="geometry" />
        </mxCell>
        <mxCell id="J5P5tDlpoE1sLNyTf0Wl-302" value="" style="shape=partialRectangle;collapsible=0;dropTarget=0;pointerEvents=0;fillColor=none;top=0;left=0;bottom=0;right=0;points=[[0,0.5],[1,0.5]];portConstraint=eastwest;" vertex="1" parent="J5P5tDlpoE1sLNyTf0Wl-298">
          <mxGeometry y="60" width="180" height="30" as="geometry" />
        </mxCell>
        <mxCell id="J5P5tDlpoE1sLNyTf0Wl-303" value="" style="shape=partialRectangle;connectable=0;fillColor=none;top=0;left=0;bottom=0;right=0;editable=1;overflow=hidden;" vertex="1" parent="J5P5tDlpoE1sLNyTf0Wl-302">
          <mxGeometry width="30" height="30" as="geometry" />
        </mxCell>
        <mxCell id="J5P5tDlpoE1sLNyTf0Wl-304" value="staff_id" style="shape=partialRectangle;connectable=0;fillColor=none;top=0;left=0;bottom=0;right=0;align=left;spacingLeft=6;overflow=hidden;" vertex="1" parent="J5P5tDlpoE1sLNyTf0Wl-302">
          <mxGeometry x="30" width="150" height="30" as="geometry" />
        </mxCell>
        <mxCell id="J5P5tDlpoE1sLNyTf0Wl-305" value="" style="shape=partialRectangle;collapsible=0;dropTarget=0;pointerEvents=0;fillColor=none;top=0;left=0;bottom=0;right=0;points=[[0,0.5],[1,0.5]];portConstraint=eastwest;" vertex="1" parent="J5P5tDlpoE1sLNyTf0Wl-298">
          <mxGeometry y="90" width="180" height="30" as="geometry" />
        </mxCell>
        <mxCell id="J5P5tDlpoE1sLNyTf0Wl-306" value="" style="shape=partialRectangle;connectable=0;fillColor=none;top=0;left=0;bottom=0;right=0;editable=1;overflow=hidden;" vertex="1" parent="J5P5tDlpoE1sLNyTf0Wl-305">
          <mxGeometry width="30" height="30" as="geometry" />
        </mxCell>
        <mxCell id="J5P5tDlpoE1sLNyTf0Wl-307" value="date" style="shape=partialRectangle;connectable=0;fillColor=none;top=0;left=0;bottom=0;right=0;align=left;spacingLeft=6;overflow=hidden;" vertex="1" parent="J5P5tDlpoE1sLNyTf0Wl-305">
          <mxGeometry x="30" width="150" height="30" as="geometry" />
        </mxCell>
        <mxCell id="J5P5tDlpoE1sLNyTf0Wl-308" value="" style="shape=partialRectangle;collapsible=0;dropTarget=0;pointerEvents=0;fillColor=none;top=0;left=0;bottom=0;right=0;points=[[0,0.5],[1,0.5]];portConstraint=eastwest;" vertex="1" parent="J5P5tDlpoE1sLNyTf0Wl-298">
          <mxGeometry y="120" width="180" height="30" as="geometry" />
        </mxCell>
        <mxCell id="J5P5tDlpoE1sLNyTf0Wl-309" value="" style="shape=partialRectangle;connectable=0;fillColor=none;top=0;left=0;bottom=0;right=0;editable=1;overflow=hidden;" vertex="1" parent="J5P5tDlpoE1sLNyTf0Wl-308">
          <mxGeometry width="30" height="30" as="geometry" />
        </mxCell>
        <mxCell id="J5P5tDlpoE1sLNyTf0Wl-310" value="type" style="shape=partialRectangle;connectable=0;fillColor=none;top=0;left=0;bottom=0;right=0;align=left;spacingLeft=6;overflow=hidden;" vertex="1" parent="J5P5tDlpoE1sLNyTf0Wl-308">
          <mxGeometry x="30" width="150" height="30" as="geometry" />
        </mxCell>
        <mxCell id="J5P5tDlpoE1sLNyTf0Wl-311" value="" style="edgeStyle=entityRelationEdgeStyle;fontSize=12;html=1;endArrow=ERzeroToMany;startArrow=ERmandOne;entryX=-0.017;entryY=0.8;entryDx=0;entryDy=0;entryPerimeter=0;exitX=0.994;exitY=0.767;exitDx=0;exitDy=0;exitPerimeter=0;" edge="1" parent="1" source="J5P5tDlpoE1sLNyTf0Wl-289" target="J5P5tDlpoE1sLNyTf0Wl-302">
          <mxGeometry width="100" height="100" relative="1" as="geometry">
            <mxPoint x="720" y="401" as="sourcePoint" />
            <mxPoint x="819.75" y="301" as="targetPoint" />
          </mxGeometry>
        </mxCell>
        <mxCell id="J5P5tDlpoE1sLNyTf0Wl-312" value="income" style="shape=table;startSize=30;container=1;collapsible=1;childLayout=tableLayout;fixedRows=1;rowLines=0;fontStyle=1;align=center;resizeLast=1;" vertex="1" parent="1">
          <mxGeometry x="1064" y="830" width="180" height="160" as="geometry" />
        </mxCell>
        <mxCell id="J5P5tDlpoE1sLNyTf0Wl-313" value="" style="shape=partialRectangle;collapsible=0;dropTarget=0;pointerEvents=0;fillColor=none;top=0;left=0;bottom=1;right=0;points=[[0,0.5],[1,0.5]];portConstraint=eastwest;" vertex="1" parent="J5P5tDlpoE1sLNyTf0Wl-312">
          <mxGeometry y="30" width="180" height="30" as="geometry" />
        </mxCell>
        <mxCell id="J5P5tDlpoE1sLNyTf0Wl-314" value="PK" style="shape=partialRectangle;connectable=0;fillColor=none;top=0;left=0;bottom=0;right=0;fontStyle=1;overflow=hidden;" vertex="1" parent="J5P5tDlpoE1sLNyTf0Wl-313">
          <mxGeometry width="30" height="30" as="geometry" />
        </mxCell>
        <mxCell id="J5P5tDlpoE1sLNyTf0Wl-315" value="income_id" style="shape=partialRectangle;connectable=0;fillColor=none;top=0;left=0;bottom=0;right=0;align=left;spacingLeft=6;fontStyle=5;overflow=hidden;" vertex="1" parent="J5P5tDlpoE1sLNyTf0Wl-313">
          <mxGeometry x="30" width="150" height="30" as="geometry" />
        </mxCell>
        <mxCell id="J5P5tDlpoE1sLNyTf0Wl-316" value="" style="shape=partialRectangle;collapsible=0;dropTarget=0;pointerEvents=0;fillColor=none;top=0;left=0;bottom=0;right=0;points=[[0,0.5],[1,0.5]];portConstraint=eastwest;" vertex="1" parent="J5P5tDlpoE1sLNyTf0Wl-312">
          <mxGeometry y="60" width="180" height="30" as="geometry" />
        </mxCell>
        <mxCell id="J5P5tDlpoE1sLNyTf0Wl-317" value="" style="shape=partialRectangle;connectable=0;fillColor=none;top=0;left=0;bottom=0;right=0;editable=1;overflow=hidden;" vertex="1" parent="J5P5tDlpoE1sLNyTf0Wl-316">
          <mxGeometry width="30" height="30" as="geometry" />
        </mxCell>
        <mxCell id="J5P5tDlpoE1sLNyTf0Wl-318" value="date" style="shape=partialRectangle;connectable=0;fillColor=none;top=0;left=0;bottom=0;right=0;align=left;spacingLeft=6;overflow=hidden;" vertex="1" parent="J5P5tDlpoE1sLNyTf0Wl-316">
          <mxGeometry x="30" width="150" height="30" as="geometry" />
        </mxCell>
        <mxCell id="J5P5tDlpoE1sLNyTf0Wl-319" value="" style="shape=partialRectangle;collapsible=0;dropTarget=0;pointerEvents=0;fillColor=none;top=0;left=0;bottom=0;right=0;points=[[0,0.5],[1,0.5]];portConstraint=eastwest;" vertex="1" parent="J5P5tDlpoE1sLNyTf0Wl-312">
          <mxGeometry y="90" width="180" height="30" as="geometry" />
        </mxCell>
        <mxCell id="J5P5tDlpoE1sLNyTf0Wl-320" value="" style="shape=partialRectangle;connectable=0;fillColor=none;top=0;left=0;bottom=0;right=0;editable=1;overflow=hidden;" vertex="1" parent="J5P5tDlpoE1sLNyTf0Wl-319">
          <mxGeometry width="30" height="30" as="geometry" />
        </mxCell>
        <mxCell id="J5P5tDlpoE1sLNyTf0Wl-321" value="fee" style="shape=partialRectangle;connectable=0;fillColor=none;top=0;left=0;bottom=0;right=0;align=left;spacingLeft=6;overflow=hidden;" vertex="1" parent="J5P5tDlpoE1sLNyTf0Wl-319">
          <mxGeometry x="30" width="150" height="30" as="geometry" />
        </mxCell>
        <mxCell id="J5P5tDlpoE1sLNyTf0Wl-322" value="" style="shape=partialRectangle;collapsible=0;dropTarget=0;pointerEvents=0;fillColor=none;top=0;left=0;bottom=0;right=0;points=[[0,0.5],[1,0.5]];portConstraint=eastwest;" vertex="1" parent="J5P5tDlpoE1sLNyTf0Wl-312">
          <mxGeometry y="120" width="180" height="30" as="geometry" />
        </mxCell>
        <mxCell id="J5P5tDlpoE1sLNyTf0Wl-323" value="" style="shape=partialRectangle;connectable=0;fillColor=none;top=0;left=0;bottom=0;right=0;editable=1;overflow=hidden;" vertex="1" parent="J5P5tDlpoE1sLNyTf0Wl-322">
          <mxGeometry width="30" height="30" as="geometry" />
        </mxCell>
        <mxCell id="J5P5tDlpoE1sLNyTf0Wl-324" value="Row 3" style="shape=partialRectangle;connectable=0;fillColor=none;top=0;left=0;bottom=0;right=0;align=left;spacingLeft=6;overflow=hidden;" vertex="1" parent="J5P5tDlpoE1sLNyTf0Wl-322">
          <mxGeometry x="30" width="150" height="30" as="geometry" />
        </mxCell>
        <mxCell id="J5P5tDlpoE1sLNyTf0Wl-338" value="supply" style="shape=table;startSize=30;container=1;collapsible=1;childLayout=tableLayout;fixedRows=1;rowLines=0;fontStyle=1;align=center;resizeLast=1;" vertex="1" parent="1">
          <mxGeometry x="1838" y="633" width="180" height="160" as="geometry" />
        </mxCell>
        <mxCell id="J5P5tDlpoE1sLNyTf0Wl-339" value="" style="shape=partialRectangle;collapsible=0;dropTarget=0;pointerEvents=0;fillColor=none;top=0;left=0;bottom=1;right=0;points=[[0,0.5],[1,0.5]];portConstraint=eastwest;" vertex="1" parent="J5P5tDlpoE1sLNyTf0Wl-338">
          <mxGeometry y="30" width="180" height="30" as="geometry" />
        </mxCell>
        <mxCell id="J5P5tDlpoE1sLNyTf0Wl-340" value="PK" style="shape=partialRectangle;connectable=0;fillColor=none;top=0;left=0;bottom=0;right=0;fontStyle=1;overflow=hidden;" vertex="1" parent="J5P5tDlpoE1sLNyTf0Wl-339">
          <mxGeometry width="30" height="30" as="geometry" />
        </mxCell>
        <mxCell id="J5P5tDlpoE1sLNyTf0Wl-341" value="name" style="shape=partialRectangle;connectable=0;fillColor=none;top=0;left=0;bottom=0;right=0;align=left;spacingLeft=6;fontStyle=5;overflow=hidden;" vertex="1" parent="J5P5tDlpoE1sLNyTf0Wl-339">
          <mxGeometry x="30" width="150" height="30" as="geometry" />
        </mxCell>
        <mxCell id="J5P5tDlpoE1sLNyTf0Wl-342" value="" style="shape=partialRectangle;collapsible=0;dropTarget=0;pointerEvents=0;fillColor=none;top=0;left=0;bottom=0;right=0;points=[[0,0.5],[1,0.5]];portConstraint=eastwest;" vertex="1" parent="J5P5tDlpoE1sLNyTf0Wl-338">
          <mxGeometry y="60" width="180" height="30" as="geometry" />
        </mxCell>
        <mxCell id="J5P5tDlpoE1sLNyTf0Wl-343" value="" style="shape=partialRectangle;connectable=0;fillColor=none;top=0;left=0;bottom=0;right=0;editable=1;overflow=hidden;" vertex="1" parent="J5P5tDlpoE1sLNyTf0Wl-342">
          <mxGeometry width="30" height="30" as="geometry" />
        </mxCell>
        <mxCell id="J5P5tDlpoE1sLNyTf0Wl-344" value="" style="shape=partialRectangle;connectable=0;fillColor=none;top=0;left=0;bottom=0;right=0;align=left;spacingLeft=6;overflow=hidden;" vertex="1" parent="J5P5tDlpoE1sLNyTf0Wl-342">
          <mxGeometry x="30" width="150" height="30" as="geometry" />
        </mxCell>
        <mxCell id="J5P5tDlpoE1sLNyTf0Wl-345" value="" style="shape=partialRectangle;collapsible=0;dropTarget=0;pointerEvents=0;fillColor=none;top=0;left=0;bottom=0;right=0;points=[[0,0.5],[1,0.5]];portConstraint=eastwest;" vertex="1" parent="J5P5tDlpoE1sLNyTf0Wl-338">
          <mxGeometry y="90" width="180" height="30" as="geometry" />
        </mxCell>
        <mxCell id="J5P5tDlpoE1sLNyTf0Wl-346" value="" style="shape=partialRectangle;connectable=0;fillColor=none;top=0;left=0;bottom=0;right=0;editable=1;overflow=hidden;" vertex="1" parent="J5P5tDlpoE1sLNyTf0Wl-345">
          <mxGeometry width="30" height="30" as="geometry" />
        </mxCell>
        <mxCell id="J5P5tDlpoE1sLNyTf0Wl-347" value="amount" style="shape=partialRectangle;connectable=0;fillColor=none;top=0;left=0;bottom=0;right=0;align=left;spacingLeft=6;overflow=hidden;" vertex="1" parent="J5P5tDlpoE1sLNyTf0Wl-345">
          <mxGeometry x="30" width="150" height="30" as="geometry" />
        </mxCell>
        <mxCell id="J5P5tDlpoE1sLNyTf0Wl-348" value="" style="shape=partialRectangle;collapsible=0;dropTarget=0;pointerEvents=0;fillColor=none;top=0;left=0;bottom=0;right=0;points=[[0,0.5],[1,0.5]];portConstraint=eastwest;" vertex="1" parent="J5P5tDlpoE1sLNyTf0Wl-338">
          <mxGeometry y="120" width="180" height="30" as="geometry" />
        </mxCell>
        <mxCell id="J5P5tDlpoE1sLNyTf0Wl-349" value="" style="shape=partialRectangle;connectable=0;fillColor=none;top=0;left=0;bottom=0;right=0;editable=1;overflow=hidden;" vertex="1" parent="J5P5tDlpoE1sLNyTf0Wl-348">
          <mxGeometry width="30" height="30" as="geometry" />
        </mxCell>
        <mxCell id="J5P5tDlpoE1sLNyTf0Wl-350" value="" style="shape=partialRectangle;connectable=0;fillColor=none;top=0;left=0;bottom=0;right=0;align=left;spacingLeft=6;overflow=hidden;" vertex="1" parent="J5P5tDlpoE1sLNyTf0Wl-348">
          <mxGeometry x="30" width="150" height="30" as="geometry" />
        </mxCell>
        <mxCell id="J5P5tDlpoE1sLNyTf0Wl-351" value="report" style="shape=table;startSize=30;container=1;collapsible=1;childLayout=tableLayout;fixedRows=1;rowLines=0;fontStyle=1;align=center;resizeLast=1;" vertex="1" parent="1">
          <mxGeometry x="1334" y="830" width="180" height="160" as="geometry" />
        </mxCell>
        <mxCell id="J5P5tDlpoE1sLNyTf0Wl-352" value="" style="shape=partialRectangle;collapsible=0;dropTarget=0;pointerEvents=0;fillColor=none;top=0;left=0;bottom=1;right=0;points=[[0,0.5],[1,0.5]];portConstraint=eastwest;" vertex="1" parent="J5P5tDlpoE1sLNyTf0Wl-351">
          <mxGeometry y="30" width="180" height="30" as="geometry" />
        </mxCell>
        <mxCell id="J5P5tDlpoE1sLNyTf0Wl-353" value="PK" style="shape=partialRectangle;connectable=0;fillColor=none;top=0;left=0;bottom=0;right=0;fontStyle=1;overflow=hidden;" vertex="1" parent="J5P5tDlpoE1sLNyTf0Wl-352">
          <mxGeometry width="30" height="30" as="geometry" />
        </mxCell>
        <mxCell id="J5P5tDlpoE1sLNyTf0Wl-354" value="UniqueID" style="shape=partialRectangle;connectable=0;fillColor=none;top=0;left=0;bottom=0;right=0;align=left;spacingLeft=6;fontStyle=5;overflow=hidden;" vertex="1" parent="J5P5tDlpoE1sLNyTf0Wl-352">
          <mxGeometry x="30" width="150" height="30" as="geometry" />
        </mxCell>
        <mxCell id="J5P5tDlpoE1sLNyTf0Wl-355" value="" style="shape=partialRectangle;collapsible=0;dropTarget=0;pointerEvents=0;fillColor=none;top=0;left=0;bottom=0;right=0;points=[[0,0.5],[1,0.5]];portConstraint=eastwest;" vertex="1" parent="J5P5tDlpoE1sLNyTf0Wl-351">
          <mxGeometry y="60" width="180" height="30" as="geometry" />
        </mxCell>
        <mxCell id="J5P5tDlpoE1sLNyTf0Wl-356" value="" style="shape=partialRectangle;connectable=0;fillColor=none;top=0;left=0;bottom=0;right=0;editable=1;overflow=hidden;" vertex="1" parent="J5P5tDlpoE1sLNyTf0Wl-355">
          <mxGeometry width="30" height="30" as="geometry" />
        </mxCell>
        <mxCell id="J5P5tDlpoE1sLNyTf0Wl-357" value="type" style="shape=partialRectangle;connectable=0;fillColor=none;top=0;left=0;bottom=0;right=0;align=left;spacingLeft=6;overflow=hidden;" vertex="1" parent="J5P5tDlpoE1sLNyTf0Wl-355">
          <mxGeometry x="30" width="150" height="30" as="geometry" />
        </mxCell>
        <mxCell id="J5P5tDlpoE1sLNyTf0Wl-358" value="" style="shape=partialRectangle;collapsible=0;dropTarget=0;pointerEvents=0;fillColor=none;top=0;left=0;bottom=0;right=0;points=[[0,0.5],[1,0.5]];portConstraint=eastwest;" vertex="1" parent="J5P5tDlpoE1sLNyTf0Wl-351">
          <mxGeometry y="90" width="180" height="30" as="geometry" />
        </mxCell>
        <mxCell id="J5P5tDlpoE1sLNyTf0Wl-359" value="" style="shape=partialRectangle;connectable=0;fillColor=none;top=0;left=0;bottom=0;right=0;editable=1;overflow=hidden;" vertex="1" parent="J5P5tDlpoE1sLNyTf0Wl-358">
          <mxGeometry width="30" height="30" as="geometry" />
        </mxCell>
        <mxCell id="J5P5tDlpoE1sLNyTf0Wl-360" value="id" style="shape=partialRectangle;connectable=0;fillColor=none;top=0;left=0;bottom=0;right=0;align=left;spacingLeft=6;overflow=hidden;" vertex="1" parent="J5P5tDlpoE1sLNyTf0Wl-358">
          <mxGeometry x="30" width="150" height="30" as="geometry" />
        </mxCell>
        <mxCell id="J5P5tDlpoE1sLNyTf0Wl-361" value="" style="shape=partialRectangle;collapsible=0;dropTarget=0;pointerEvents=0;fillColor=none;top=0;left=0;bottom=0;right=0;points=[[0,0.5],[1,0.5]];portConstraint=eastwest;" vertex="1" parent="J5P5tDlpoE1sLNyTf0Wl-351">
          <mxGeometry y="120" width="180" height="30" as="geometry" />
        </mxCell>
        <mxCell id="J5P5tDlpoE1sLNyTf0Wl-362" value="" style="shape=partialRectangle;connectable=0;fillColor=none;top=0;left=0;bottom=0;right=0;editable=1;overflow=hidden;" vertex="1" parent="J5P5tDlpoE1sLNyTf0Wl-361">
          <mxGeometry width="30" height="30" as="geometry" />
        </mxCell>
        <mxCell id="J5P5tDlpoE1sLNyTf0Wl-363" value="fee" style="shape=partialRectangle;connectable=0;fillColor=none;top=0;left=0;bottom=0;right=0;align=left;spacingLeft=6;overflow=hidden;" vertex="1" parent="J5P5tDlpoE1sLNyTf0Wl-361">
          <mxGeometry x="30" width="150" height="30" as="geometry" />
        </mxCell>
        <mxCell id="J5P5tDlpoE1sLNyTf0Wl-364" value="restock" style="shape=table;startSize=30;container=1;collapsible=1;childLayout=tableLayout;fixedRows=1;rowLines=0;fontStyle=1;align=center;resizeLast=1;" vertex="1" parent="1">
          <mxGeometry x="1610" y="631" width="180" height="160" as="geometry" />
        </mxCell>
        <mxCell id="J5P5tDlpoE1sLNyTf0Wl-365" value="" style="shape=partialRectangle;collapsible=0;dropTarget=0;pointerEvents=0;fillColor=none;top=0;left=0;bottom=1;right=0;points=[[0,0.5],[1,0.5]];portConstraint=eastwest;" vertex="1" parent="J5P5tDlpoE1sLNyTf0Wl-364">
          <mxGeometry y="30" width="180" height="30" as="geometry" />
        </mxCell>
        <mxCell id="J5P5tDlpoE1sLNyTf0Wl-366" value="PK" style="shape=partialRectangle;connectable=0;fillColor=none;top=0;left=0;bottom=0;right=0;fontStyle=1;overflow=hidden;" vertex="1" parent="J5P5tDlpoE1sLNyTf0Wl-365">
          <mxGeometry width="30" height="30" as="geometry" />
        </mxCell>
        <mxCell id="J5P5tDlpoE1sLNyTf0Wl-367" value="UniqueID" style="shape=partialRectangle;connectable=0;fillColor=none;top=0;left=0;bottom=0;right=0;align=left;spacingLeft=6;fontStyle=5;overflow=hidden;" vertex="1" parent="J5P5tDlpoE1sLNyTf0Wl-365">
          <mxGeometry x="30" width="150" height="30" as="geometry" />
        </mxCell>
        <mxCell id="J5P5tDlpoE1sLNyTf0Wl-368" value="" style="shape=partialRectangle;collapsible=0;dropTarget=0;pointerEvents=0;fillColor=none;top=0;left=0;bottom=0;right=0;points=[[0,0.5],[1,0.5]];portConstraint=eastwest;" vertex="1" parent="J5P5tDlpoE1sLNyTf0Wl-364">
          <mxGeometry y="60" width="180" height="30" as="geometry" />
        </mxCell>
        <mxCell id="J5P5tDlpoE1sLNyTf0Wl-369" value="" style="shape=partialRectangle;connectable=0;fillColor=none;top=0;left=0;bottom=0;right=0;editable=1;overflow=hidden;" vertex="1" parent="J5P5tDlpoE1sLNyTf0Wl-368">
          <mxGeometry width="30" height="30" as="geometry" />
        </mxCell>
        <mxCell id="J5P5tDlpoE1sLNyTf0Wl-370" value="Row 1" style="shape=partialRectangle;connectable=0;fillColor=none;top=0;left=0;bottom=0;right=0;align=left;spacingLeft=6;overflow=hidden;" vertex="1" parent="J5P5tDlpoE1sLNyTf0Wl-368">
          <mxGeometry x="30" width="150" height="30" as="geometry" />
        </mxCell>
        <mxCell id="J5P5tDlpoE1sLNyTf0Wl-371" value="" style="shape=partialRectangle;collapsible=0;dropTarget=0;pointerEvents=0;fillColor=none;top=0;left=0;bottom=0;right=0;points=[[0,0.5],[1,0.5]];portConstraint=eastwest;" vertex="1" parent="J5P5tDlpoE1sLNyTf0Wl-364">
          <mxGeometry y="90" width="180" height="30" as="geometry" />
        </mxCell>
        <mxCell id="J5P5tDlpoE1sLNyTf0Wl-372" value="" style="shape=partialRectangle;connectable=0;fillColor=none;top=0;left=0;bottom=0;right=0;editable=1;overflow=hidden;" vertex="1" parent="J5P5tDlpoE1sLNyTf0Wl-371">
          <mxGeometry width="30" height="30" as="geometry" />
        </mxCell>
        <mxCell id="J5P5tDlpoE1sLNyTf0Wl-373" value="Row 2" style="shape=partialRectangle;connectable=0;fillColor=none;top=0;left=0;bottom=0;right=0;align=left;spacingLeft=6;overflow=hidden;" vertex="1" parent="J5P5tDlpoE1sLNyTf0Wl-371">
          <mxGeometry x="30" width="150" height="30" as="geometry" />
        </mxCell>
        <mxCell id="J5P5tDlpoE1sLNyTf0Wl-374" value="" style="shape=partialRectangle;collapsible=0;dropTarget=0;pointerEvents=0;fillColor=none;top=0;left=0;bottom=0;right=0;points=[[0,0.5],[1,0.5]];portConstraint=eastwest;" vertex="1" parent="J5P5tDlpoE1sLNyTf0Wl-364">
          <mxGeometry y="120" width="180" height="30" as="geometry" />
        </mxCell>
        <mxCell id="J5P5tDlpoE1sLNyTf0Wl-375" value="" style="shape=partialRectangle;connectable=0;fillColor=none;top=0;left=0;bottom=0;right=0;editable=1;overflow=hidden;" vertex="1" parent="J5P5tDlpoE1sLNyTf0Wl-374">
          <mxGeometry width="30" height="30" as="geometry" />
        </mxCell>
        <mxCell id="J5P5tDlpoE1sLNyTf0Wl-376" value="Row 3" style="shape=partialRectangle;connectable=0;fillColor=none;top=0;left=0;bottom=0;right=0;align=left;spacingLeft=6;overflow=hidden;" vertex="1" parent="J5P5tDlpoE1sLNyTf0Wl-374">
          <mxGeometry x="30" width="150" height="30" as="geometry" />
        </mxCell>
        <mxCell id="J5P5tDlpoE1sLNyTf0Wl-390" value="maintain" style="shape=table;startSize=30;container=1;collapsible=1;childLayout=tableLayout;fixedRows=1;rowLines=0;fontStyle=1;align=center;resizeLast=1;" vertex="1" parent="1">
          <mxGeometry x="1607" y="1029" width="180" height="160" as="geometry" />
        </mxCell>
        <mxCell id="J5P5tDlpoE1sLNyTf0Wl-391" value="" style="shape=partialRectangle;collapsible=0;dropTarget=0;pointerEvents=0;fillColor=none;top=0;left=0;bottom=1;right=0;points=[[0,0.5],[1,0.5]];portConstraint=eastwest;" vertex="1" parent="J5P5tDlpoE1sLNyTf0Wl-390">
          <mxGeometry y="30" width="180" height="30" as="geometry" />
        </mxCell>
        <mxCell id="J5P5tDlpoE1sLNyTf0Wl-392" value="PK" style="shape=partialRectangle;connectable=0;fillColor=none;top=0;left=0;bottom=0;right=0;fontStyle=1;overflow=hidden;" vertex="1" parent="J5P5tDlpoE1sLNyTf0Wl-391">
          <mxGeometry width="30" height="30" as="geometry" />
        </mxCell>
        <mxCell id="J5P5tDlpoE1sLNyTf0Wl-393" value="UniqueID" style="shape=partialRectangle;connectable=0;fillColor=none;top=0;left=0;bottom=0;right=0;align=left;spacingLeft=6;fontStyle=5;overflow=hidden;" vertex="1" parent="J5P5tDlpoE1sLNyTf0Wl-391">
          <mxGeometry x="30" width="150" height="30" as="geometry" />
        </mxCell>
        <mxCell id="J5P5tDlpoE1sLNyTf0Wl-394" value="" style="shape=partialRectangle;collapsible=0;dropTarget=0;pointerEvents=0;fillColor=none;top=0;left=0;bottom=0;right=0;points=[[0,0.5],[1,0.5]];portConstraint=eastwest;" vertex="1" parent="J5P5tDlpoE1sLNyTf0Wl-390">
          <mxGeometry y="60" width="180" height="30" as="geometry" />
        </mxCell>
        <mxCell id="J5P5tDlpoE1sLNyTf0Wl-395" value="" style="shape=partialRectangle;connectable=0;fillColor=none;top=0;left=0;bottom=0;right=0;editable=1;overflow=hidden;" vertex="1" parent="J5P5tDlpoE1sLNyTf0Wl-394">
          <mxGeometry width="30" height="30" as="geometry" />
        </mxCell>
        <mxCell id="J5P5tDlpoE1sLNyTf0Wl-396" value="Row 1" style="shape=partialRectangle;connectable=0;fillColor=none;top=0;left=0;bottom=0;right=0;align=left;spacingLeft=6;overflow=hidden;" vertex="1" parent="J5P5tDlpoE1sLNyTf0Wl-394">
          <mxGeometry x="30" width="150" height="30" as="geometry" />
        </mxCell>
        <mxCell id="J5P5tDlpoE1sLNyTf0Wl-397" value="" style="shape=partialRectangle;collapsible=0;dropTarget=0;pointerEvents=0;fillColor=none;top=0;left=0;bottom=0;right=0;points=[[0,0.5],[1,0.5]];portConstraint=eastwest;" vertex="1" parent="J5P5tDlpoE1sLNyTf0Wl-390">
          <mxGeometry y="90" width="180" height="30" as="geometry" />
        </mxCell>
        <mxCell id="J5P5tDlpoE1sLNyTf0Wl-398" value="" style="shape=partialRectangle;connectable=0;fillColor=none;top=0;left=0;bottom=0;right=0;editable=1;overflow=hidden;" vertex="1" parent="J5P5tDlpoE1sLNyTf0Wl-397">
          <mxGeometry width="30" height="30" as="geometry" />
        </mxCell>
        <mxCell id="J5P5tDlpoE1sLNyTf0Wl-399" value="Row 2" style="shape=partialRectangle;connectable=0;fillColor=none;top=0;left=0;bottom=0;right=0;align=left;spacingLeft=6;overflow=hidden;" vertex="1" parent="J5P5tDlpoE1sLNyTf0Wl-397">
          <mxGeometry x="30" width="150" height="30" as="geometry" />
        </mxCell>
        <mxCell id="J5P5tDlpoE1sLNyTf0Wl-400" value="" style="shape=partialRectangle;collapsible=0;dropTarget=0;pointerEvents=0;fillColor=none;top=0;left=0;bottom=0;right=0;points=[[0,0.5],[1,0.5]];portConstraint=eastwest;" vertex="1" parent="J5P5tDlpoE1sLNyTf0Wl-390">
          <mxGeometry y="120" width="180" height="30" as="geometry" />
        </mxCell>
        <mxCell id="J5P5tDlpoE1sLNyTf0Wl-401" value="" style="shape=partialRectangle;connectable=0;fillColor=none;top=0;left=0;bottom=0;right=0;editable=1;overflow=hidden;" vertex="1" parent="J5P5tDlpoE1sLNyTf0Wl-400">
          <mxGeometry width="30" height="30" as="geometry" />
        </mxCell>
        <mxCell id="J5P5tDlpoE1sLNyTf0Wl-402" value="Row 3" style="shape=partialRectangle;connectable=0;fillColor=none;top=0;left=0;bottom=0;right=0;align=left;spacingLeft=6;overflow=hidden;" vertex="1" parent="J5P5tDlpoE1sLNyTf0Wl-400">
          <mxGeometry x="30" width="150" height="30" as="geometry" />
        </mxCell>
        <mxCell id="J5P5tDlpoE1sLNyTf0Wl-403" value="facility" style="shape=table;startSize=30;container=1;collapsible=1;childLayout=tableLayout;fixedRows=1;rowLines=0;fontStyle=1;align=center;resizeLast=1;" vertex="1" parent="1">
          <mxGeometry x="1831" y="1032" width="180" height="160" as="geometry" />
        </mxCell>
        <mxCell id="J5P5tDlpoE1sLNyTf0Wl-404" value="" style="shape=partialRectangle;collapsible=0;dropTarget=0;pointerEvents=0;fillColor=none;top=0;left=0;bottom=1;right=0;points=[[0,0.5],[1,0.5]];portConstraint=eastwest;" vertex="1" parent="J5P5tDlpoE1sLNyTf0Wl-403">
          <mxGeometry y="30" width="180" height="30" as="geometry" />
        </mxCell>
        <mxCell id="J5P5tDlpoE1sLNyTf0Wl-405" value="PK" style="shape=partialRectangle;connectable=0;fillColor=none;top=0;left=0;bottom=0;right=0;fontStyle=1;overflow=hidden;" vertex="1" parent="J5P5tDlpoE1sLNyTf0Wl-404">
          <mxGeometry width="30" height="30" as="geometry" />
        </mxCell>
        <mxCell id="J5P5tDlpoE1sLNyTf0Wl-406" value="UniqueID" style="shape=partialRectangle;connectable=0;fillColor=none;top=0;left=0;bottom=0;right=0;align=left;spacingLeft=6;fontStyle=5;overflow=hidden;" vertex="1" parent="J5P5tDlpoE1sLNyTf0Wl-404">
          <mxGeometry x="30" width="150" height="30" as="geometry" />
        </mxCell>
        <mxCell id="J5P5tDlpoE1sLNyTf0Wl-407" value="" style="shape=partialRectangle;collapsible=0;dropTarget=0;pointerEvents=0;fillColor=none;top=0;left=0;bottom=0;right=0;points=[[0,0.5],[1,0.5]];portConstraint=eastwest;" vertex="1" parent="J5P5tDlpoE1sLNyTf0Wl-403">
          <mxGeometry y="60" width="180" height="30" as="geometry" />
        </mxCell>
        <mxCell id="J5P5tDlpoE1sLNyTf0Wl-408" value="" style="shape=partialRectangle;connectable=0;fillColor=none;top=0;left=0;bottom=0;right=0;editable=1;overflow=hidden;" vertex="1" parent="J5P5tDlpoE1sLNyTf0Wl-407">
          <mxGeometry width="30" height="30" as="geometry" />
        </mxCell>
        <mxCell id="J5P5tDlpoE1sLNyTf0Wl-409" value="Row 1" style="shape=partialRectangle;connectable=0;fillColor=none;top=0;left=0;bottom=0;right=0;align=left;spacingLeft=6;overflow=hidden;" vertex="1" parent="J5P5tDlpoE1sLNyTf0Wl-407">
          <mxGeometry x="30" width="150" height="30" as="geometry" />
        </mxCell>
        <mxCell id="J5P5tDlpoE1sLNyTf0Wl-410" value="" style="shape=partialRectangle;collapsible=0;dropTarget=0;pointerEvents=0;fillColor=none;top=0;left=0;bottom=0;right=0;points=[[0,0.5],[1,0.5]];portConstraint=eastwest;" vertex="1" parent="J5P5tDlpoE1sLNyTf0Wl-403">
          <mxGeometry y="90" width="180" height="30" as="geometry" />
        </mxCell>
        <mxCell id="J5P5tDlpoE1sLNyTf0Wl-411" value="" style="shape=partialRectangle;connectable=0;fillColor=none;top=0;left=0;bottom=0;right=0;editable=1;overflow=hidden;" vertex="1" parent="J5P5tDlpoE1sLNyTf0Wl-410">
          <mxGeometry width="30" height="30" as="geometry" />
        </mxCell>
        <mxCell id="J5P5tDlpoE1sLNyTf0Wl-412" value="Row 2" style="shape=partialRectangle;connectable=0;fillColor=none;top=0;left=0;bottom=0;right=0;align=left;spacingLeft=6;overflow=hidden;" vertex="1" parent="J5P5tDlpoE1sLNyTf0Wl-410">
          <mxGeometry x="30" width="150" height="30" as="geometry" />
        </mxCell>
        <mxCell id="J5P5tDlpoE1sLNyTf0Wl-413" value="" style="shape=partialRectangle;collapsible=0;dropTarget=0;pointerEvents=0;fillColor=none;top=0;left=0;bottom=0;right=0;points=[[0,0.5],[1,0.5]];portConstraint=eastwest;" vertex="1" parent="J5P5tDlpoE1sLNyTf0Wl-403">
          <mxGeometry y="120" width="180" height="30" as="geometry" />
        </mxCell>
        <mxCell id="J5P5tDlpoE1sLNyTf0Wl-414" value="" style="shape=partialRectangle;connectable=0;fillColor=none;top=0;left=0;bottom=0;right=0;editable=1;overflow=hidden;" vertex="1" parent="J5P5tDlpoE1sLNyTf0Wl-413">
          <mxGeometry width="30" height="30" as="geometry" />
        </mxCell>
        <mxCell id="J5P5tDlpoE1sLNyTf0Wl-415" value="Row 3" style="shape=partialRectangle;connectable=0;fillColor=none;top=0;left=0;bottom=0;right=0;align=left;spacingLeft=6;overflow=hidden;" vertex="1" parent="J5P5tDlpoE1sLNyTf0Wl-413">
          <mxGeometry x="30" width="150" height="30" as="geometry" />
        </mxCell>
        <mxCell id="J5P5tDlpoE1sLNyTf0Wl-416" value="cost" style="shape=table;startSize=30;container=1;collapsible=1;childLayout=tableLayout;fixedRows=1;rowLines=0;fontStyle=1;align=center;resizeLast=1;" vertex="1" parent="1">
          <mxGeometry x="1609" y="828" width="180" height="160" as="geometry" />
        </mxCell>
        <mxCell id="J5P5tDlpoE1sLNyTf0Wl-417" value="" style="shape=partialRectangle;collapsible=0;dropTarget=0;pointerEvents=0;fillColor=none;top=0;left=0;bottom=1;right=0;points=[[0,0.5],[1,0.5]];portConstraint=eastwest;" vertex="1" parent="J5P5tDlpoE1sLNyTf0Wl-416">
          <mxGeometry y="30" width="180" height="30" as="geometry" />
        </mxCell>
        <mxCell id="J5P5tDlpoE1sLNyTf0Wl-418" value="PK" style="shape=partialRectangle;connectable=0;fillColor=none;top=0;left=0;bottom=0;right=0;fontStyle=1;overflow=hidden;" vertex="1" parent="J5P5tDlpoE1sLNyTf0Wl-417">
          <mxGeometry width="30" height="30" as="geometry" />
        </mxCell>
        <mxCell id="J5P5tDlpoE1sLNyTf0Wl-419" value="cost_id" style="shape=partialRectangle;connectable=0;fillColor=none;top=0;left=0;bottom=0;right=0;align=left;spacingLeft=6;fontStyle=5;overflow=hidden;" vertex="1" parent="J5P5tDlpoE1sLNyTf0Wl-417">
          <mxGeometry x="30" width="150" height="30" as="geometry" />
        </mxCell>
        <mxCell id="J5P5tDlpoE1sLNyTf0Wl-420" value="" style="shape=partialRectangle;collapsible=0;dropTarget=0;pointerEvents=0;fillColor=none;top=0;left=0;bottom=0;right=0;points=[[0,0.5],[1,0.5]];portConstraint=eastwest;" vertex="1" parent="J5P5tDlpoE1sLNyTf0Wl-416">
          <mxGeometry y="60" width="180" height="30" as="geometry" />
        </mxCell>
        <mxCell id="J5P5tDlpoE1sLNyTf0Wl-421" value="" style="shape=partialRectangle;connectable=0;fillColor=none;top=0;left=0;bottom=0;right=0;editable=1;overflow=hidden;" vertex="1" parent="J5P5tDlpoE1sLNyTf0Wl-420">
          <mxGeometry width="30" height="30" as="geometry" />
        </mxCell>
        <mxCell id="J5P5tDlpoE1sLNyTf0Wl-422" value="date" style="shape=partialRectangle;connectable=0;fillColor=none;top=0;left=0;bottom=0;right=0;align=left;spacingLeft=6;overflow=hidden;" vertex="1" parent="J5P5tDlpoE1sLNyTf0Wl-420">
          <mxGeometry x="30" width="150" height="30" as="geometry" />
        </mxCell>
        <mxCell id="J5P5tDlpoE1sLNyTf0Wl-423" value="" style="shape=partialRectangle;collapsible=0;dropTarget=0;pointerEvents=0;fillColor=none;top=0;left=0;bottom=0;right=0;points=[[0,0.5],[1,0.5]];portConstraint=eastwest;" vertex="1" parent="J5P5tDlpoE1sLNyTf0Wl-416">
          <mxGeometry y="90" width="180" height="30" as="geometry" />
        </mxCell>
        <mxCell id="J5P5tDlpoE1sLNyTf0Wl-424" value="" style="shape=partialRectangle;connectable=0;fillColor=none;top=0;left=0;bottom=0;right=0;editable=1;overflow=hidden;" vertex="1" parent="J5P5tDlpoE1sLNyTf0Wl-423">
          <mxGeometry width="30" height="30" as="geometry" />
        </mxCell>
        <mxCell id="J5P5tDlpoE1sLNyTf0Wl-425" value="fee" style="shape=partialRectangle;connectable=0;fillColor=none;top=0;left=0;bottom=0;right=0;align=left;spacingLeft=6;overflow=hidden;" vertex="1" parent="J5P5tDlpoE1sLNyTf0Wl-423">
          <mxGeometry x="30" width="150" height="30" as="geometry" />
        </mxCell>
        <mxCell id="J5P5tDlpoE1sLNyTf0Wl-426" value="" style="shape=partialRectangle;collapsible=0;dropTarget=0;pointerEvents=0;fillColor=none;top=0;left=0;bottom=0;right=0;points=[[0,0.5],[1,0.5]];portConstraint=eastwest;" vertex="1" parent="J5P5tDlpoE1sLNyTf0Wl-416">
          <mxGeometry y="120" width="180" height="30" as="geometry" />
        </mxCell>
        <mxCell id="J5P5tDlpoE1sLNyTf0Wl-427" value="" style="shape=partialRectangle;connectable=0;fillColor=none;top=0;left=0;bottom=0;right=0;editable=1;overflow=hidden;" vertex="1" parent="J5P5tDlpoE1sLNyTf0Wl-426">
          <mxGeometry width="30" height="30" as="geometry" />
        </mxCell>
        <mxCell id="J5P5tDlpoE1sLNyTf0Wl-428" value="Row 3" style="shape=partialRectangle;connectable=0;fillColor=none;top=0;left=0;bottom=0;right=0;align=left;spacingLeft=6;overflow=hidden;" vertex="1" parent="J5P5tDlpoE1sLNyTf0Wl-426">
          <mxGeometry x="30" width="150" height="30" as="geometry" />
        </mxCell>
      </root>
    </mxGraphModel>
  </diagram>
</mxfile>
